<?xml version="1.0" encoding="UTF-8" standalone="no"?>
<!-- Created with Inkscape (http://www.inkscape.org/) -->

<svg
   version="1.0"
   width="96"
   height="96"
   id="svg2408"
   sodipodi:docname="lsb.svg"
   inkscape:version="1.2.2 (b0a8486541, 2022-12-01)"
   xmlns:inkscape="http://www.inkscape.org/namespaces/inkscape"
   xmlns:sodipodi="http://sodipodi.sourceforge.net/DTD/sodipodi-0.dtd"
   xmlns:xlink="http://www.w3.org/1999/xlink"
   xmlns="http://www.w3.org/2000/svg"
   xmlns:svg="http://www.w3.org/2000/svg"
   xmlns:rdf="http://www.w3.org/1999/02/22-rdf-syntax-ns#"
   xmlns:cc="http://creativecommons.org/ns#"
   xmlns:dc="http://purl.org/dc/elements/1.1/">
  <sodipodi:namedview
     id="namedview10776"
     pagecolor="#ffffff"
     bordercolor="#000000"
     borderopacity="0.25"
     inkscape:showpageshadow="2"
     inkscape:pageopacity="0.0"
     inkscape:pagecheckerboard="0"
     inkscape:deskcolor="#d1d1d1"
     showgrid="false"
     inkscape:zoom="3.312369"
     inkscape:cx="55.549367"
     inkscape:cy="89.512974"
     inkscape:window-width="1920"
     inkscape:window-height="1028"
     inkscape:window-x="0"
     inkscape:window-y="25"
     inkscape:window-maximized="1"
     inkscape:current-layer="svg2408" />
  <defs
     id="defs2410">
    <linearGradient
       inkscape:collect="always"
       id="linearGradient5454">
      <stop
         style="stop-color:#ffff00;stop-opacity:1;"
         offset="0"
         id="stop5450" />
      <stop
         style="stop-color:#ffc300;stop-opacity:1;"
         offset="1"
         id="stop5452" />
    </linearGradient>
    <linearGradient
       inkscape:collect="always"
       id="linearGradient12995">
      <stop
         style="stop-color:#000000;stop-opacity:1;"
         offset="0"
         id="stop12991" />
      <stop
         style="stop-color:#000000;stop-opacity:0;"
         offset="1"
         id="stop12993" />
    </linearGradient>
    <linearGradient
       id="linearGradient3637">
      <stop
         id="stop3639"
         style="stop-color:#f0f0f0;stop-opacity:1"
         offset="0" />
      <stop
         id="stop3641"
         style="stop-color:#aaaaaa;stop-opacity:1"
         offset="1" />
    </linearGradient>
    <linearGradient
       x1="45.447727"
       y1="92.539597"
       x2="45.447727"
       y2="7.0165396"
       id="ButtonShadow"
       gradientUnits="userSpaceOnUse"
       gradientTransform="scale(1.0058652,0.994169)">
      <stop
         id="stop3750"
         style="stop-color:#000000;stop-opacity:1"
         offset="0" />
      <stop
         id="stop3752"
         style="stop-color:#000000;stop-opacity:0.58823532"
         offset="1" />
    </linearGradient>
    <linearGradient
       id="linearGradient3737">
      <stop
         id="stop3739"
         style="stop-color:#ffffff;stop-opacity:1"
         offset="0" />
      <stop
         id="stop3741"
         style="stop-color:#ffffff;stop-opacity:0"
         offset="1" />
    </linearGradient>
    <linearGradient
       id="linearGradient3700">
      <stop
         id="stop3702"
         style="stop-color:#2276c5;stop-opacity:1"
         offset="0" />
      <stop
         id="stop3704"
         style="stop-color:#68baf4;stop-opacity:1"
         offset="1" />
    </linearGradient>
    <filter
       color-interpolation-filters="sRGB"
       id="filter3174"
       x="-0.047720931"
       y="-0.048282354"
       width="1.0954419"
       height="1.0965647">
      <feGaussianBlur
         id="feGaussianBlur3176"
         stdDeviation="1.71" />
    </filter>
    <linearGradient
       x1="36.357143"
       y1="6"
       x2="36.357143"
       y2="63.893143"
       id="linearGradient3188"
       xlink:href="#linearGradient3737"
       gradientUnits="userSpaceOnUse" />
    <filter
       x="-0.19578789"
       y="-0.19578789"
       width="1.3915758"
       height="1.3915758"
       color-interpolation-filters="sRGB"
       id="filter3794">
      <feGaussianBlur
         id="feGaussianBlur3796"
         stdDeviation="5.28" />
    </filter>
    <linearGradient
       x1="48"
       y1="20.220806"
       x2="48"
       y2="138.66119"
       id="linearGradient3613"
       xlink:href="#linearGradient3737"
       gradientUnits="userSpaceOnUse" />
    <radialGradient
       cx="48"
       cy="90.171875"
       r="42"
       fx="48"
       fy="90.171875"
       id="radialGradient3619"
       xlink:href="#linearGradient3737"
       gradientUnits="userSpaceOnUse"
       gradientTransform="matrix(1.1573129,0,0,0.99590774,-7.5510206,0.19713193)" />
    <clipPath
       id="clipPath3613">
      <rect
         width="84"
         height="84"
         rx="6"
         ry="6"
         x="6"
         y="6"
         id="rect3615"
         style="fill:#ffffff;fill-opacity:1;fill-rule:nonzero;stroke:none" />
    </clipPath>
    <linearGradient
       x1="48"
       y1="90"
       x2="48"
       y2="5.9877172"
       id="linearGradient2843"
       xlink:href="#linearGradient3700"
       gradientUnits="userSpaceOnUse"
       gradientTransform="translate(0,100)" />
    <clipPath
       id="clipPath3625">
      <path
         d="M 0,0 0,96 96,96 96,0 0,0 z m 12,6 72,0 c 3.324,0 6,2.676 6,6 l 0,72 c 0,3.324 -2.676,6 -6,6 L 12,90 C 8.676,90 6,87.324 6,84 L 6,12 C 6,8.676 8.676,6 12,6 z"
         inkscape:connector-curvature="0"
         id="path3627"
         style="fill:#ffffff;fill-opacity:1;stroke:none" />
    </clipPath>
    <linearGradient
       x1="44.512066"
       y1="6"
       x2="44.512066"
       y2="90.015434"
       id="linearGradient3643"
       xlink:href="#linearGradient3637"
       gradientUnits="userSpaceOnUse" />
    <clipPath
       id="clipPath3649">
      <rect
         width="76"
         height="76"
         rx="4"
         ry="4"
         x="10"
         y="10"
         id="rect3651"
         style="fill:#ffffff;fill-opacity:1;fill-rule:nonzero;stroke:none" />
    </clipPath>
    <filter
       color-interpolation-filters="sRGB"
       id="filter3657"
       x="-0.035076923"
       y="-0.035076923"
       width="1.0701538"
       height="1.0701538">
      <feGaussianBlur
         id="feGaussianBlur3659"
         stdDeviation="1.14" />
    </filter>
    <linearGradient
       x1="45.447727"
       y1="92.539597"
       x2="45.447727"
       y2="7.0165396"
       id="ButtonShadow-0"
       gradientUnits="userSpaceOnUse"
       gradientTransform="matrix(1.0058652,0,0,0.994169,100,0)">
      <stop
         id="stop3750-8"
         style="stop-color:#000000;stop-opacity:1"
         offset="0" />
      <stop
         id="stop3752-5"
         style="stop-color:#000000;stop-opacity:0.58823532"
         offset="1" />
    </linearGradient>
    <linearGradient
       x1="32.251034"
       y1="6.1317081"
       x2="32.251034"
       y2="90.238609"
       id="linearGradient3780"
       xlink:href="#ButtonShadow-0"
       gradientUnits="userSpaceOnUse"
       gradientTransform="matrix(1.0238095,0,0,-1.0119048,-1.1428571,98.071429)" />
    <linearGradient
       x1="32.251034"
       y1="6.1317081"
       x2="32.251034"
       y2="90.238609"
       id="linearGradient3772"
       xlink:href="#ButtonShadow-0"
       gradientUnits="userSpaceOnUse"
       gradientTransform="matrix(1.0238095,0,0,-1.0119048,-1.1428571,98.071429)" />
    <linearGradient
       x1="32.251034"
       y1="6.1317081"
       x2="32.251034"
       y2="90.238609"
       id="linearGradient3725"
       xlink:href="#ButtonShadow-0"
       gradientUnits="userSpaceOnUse"
       gradientTransform="matrix(1.0238095,0,0,-1.0119048,-1.1428571,98.071429)" />
    <linearGradient
       x1="32.251034"
       y1="6.1317081"
       x2="32.251034"
       y2="90.238609"
       id="linearGradient3721"
       xlink:href="#ButtonShadow-0"
       gradientUnits="userSpaceOnUse"
       gradientTransform="matrix(1,0,0,-1,0,97)" />
    <linearGradient
       x1="32.251034"
       y1="6.1317081"
       x2="32.251034"
       y2="90.238609"
       id="linearGradient3199"
       xlink:href="#ButtonShadow-0"
       gradientUnits="userSpaceOnUse"
       gradientTransform="matrix(1.0238095,0,0,-1.0119048,-1.1428571,98.071429)" />
    <linearGradient
       x1="36.357143"
       y1="6"
       x2="36.357143"
       y2="63.893143"
       id="linearGradient3188-8"
       xlink:href="#linearGradient3737-3"
       gradientUnits="userSpaceOnUse" />
    <linearGradient
       id="linearGradient3737-3">
      <stop
         id="stop3739-6"
         style="stop-color:#ffffff;stop-opacity:1"
         offset="0" />
      <stop
         id="stop3741-1"
         style="stop-color:#ffffff;stop-opacity:0"
         offset="1" />
    </linearGradient>
    <radialGradient
       cx="48"
       cy="90.171875"
       r="42"
       fx="48"
       fy="90.171875"
       id="radialGradient3619-3"
       xlink:href="#linearGradient3737-3"
       gradientUnits="userSpaceOnUse"
       gradientTransform="matrix(1.1573129,0,0,0.99590774,-7.551021,0.1971319)" />
    <linearGradient
       x1="104"
       y1="8"
       x2="120"
       y2="8"
       id="linearGradient3905"
       xlink:href="#linearGradient3637"
       gradientUnits="userSpaceOnUse"
       gradientTransform="translate(-93.818589,211.17563)" />
    <linearGradient
       x1="104"
       y1="8"
       x2="120"
       y2="8"
       id="linearGradient3913"
       xlink:href="#linearGradient3183-0"
       gradientUnits="userSpaceOnUse"
       gradientTransform="translate(-154.18141,211.17563)" />
    <linearGradient
       id="linearGradient3183-0">
      <stop
         id="stop3185-9"
         style="stop-color:#c80000;stop-opacity:1"
         offset="0" />
      <stop
         id="stop3187-6"
         style="stop-color:#f3604d;stop-opacity:1"
         offset="1" />
    </linearGradient>
    <linearGradient
       x1="27"
       y1="48"
       x2="69"
       y2="48"
       id="linearGradient3702"
       xlink:href="#linearGradient3183-0"
       gradientUnits="userSpaceOnUse"
       gradientTransform="rotate(-90,106.67852,-0.4971095)" />
    <linearGradient
       inkscape:collect="always"
       xlink:href="#linearGradient12995"
       id="linearGradient12997"
       x1="69.393425"
       y1="131.30623"
       x2="68.383881"
       y2="121.06303"
       gradientUnits="userSpaceOnUse"
       gradientTransform="translate(50.686587,-4.1090003)" />
    <linearGradient
       inkscape:collect="always"
       xlink:href="#linearGradient12995"
       id="linearGradient14736"
       gradientUnits="userSpaceOnUse"
       gradientTransform="matrix(1.3786766,0,0,1.3786766,-45.309259,-115.86588)"
       x1="69.393425"
       y1="131.30623"
       x2="68.383881"
       y2="121.06303" />
    <linearGradient
       inkscape:collect="always"
       xlink:href="#linearGradient12995"
       id="linearGradient15662-3"
       gradientUnits="userSpaceOnUse"
       gradientTransform="matrix(1.3786766,0,0,1.3786766,-49.308345,-117.30017)"
       x1="69.393425"
       y1="131.30623"
       x2="68.383881"
       y2="121.06303" />
    <linearGradient
       inkscape:collect="always"
       xlink:href="#linearGradient12995"
       id="linearGradient1846"
       gradientUnits="userSpaceOnUse"
       gradientTransform="matrix(1.3786766,0,0,1.3786766,-49.308345,-117.30017)"
       x1="69.393425"
       y1="131.30623"
       x2="68.383881"
       y2="121.06303" />
    <linearGradient
       inkscape:collect="always"
       xlink:href="#linearGradient12995"
       id="linearGradient1848"
       gradientUnits="userSpaceOnUse"
       gradientTransform="matrix(1.3786766,0,0,1.3786766,-49.308345,-117.30017)"
       x1="69.393425"
       y1="131.30623"
       x2="68.383881"
       y2="121.06303" />
    <linearGradient
       inkscape:collect="always"
       xlink:href="#linearGradient12995"
       id="linearGradient1850"
       gradientUnits="userSpaceOnUse"
       gradientTransform="matrix(1.3786766,0,0,1.3786766,-49.308345,-117.30017)"
       x1="69.393425"
       y1="131.30623"
       x2="68.383881"
       y2="121.06303" />
    <linearGradient
       inkscape:collect="always"
       xlink:href="#linearGradient5454"
       id="linearGradient5456"
       x1="48.832493"
       y1="30.096313"
       x2="48.832493"
       y2="64.022995"
       gradientUnits="userSpaceOnUse" />
  </defs>
  <metadata
     id="metadata2413">
    <rdf:RDF>
      <cc:Work
         rdf:about="">
        <dc:format>image/svg+xml</dc:format>
        <dc:type
           rdf:resource="http://purl.org/dc/dcmitype/StillImage" />
      </cc:Work>
    </rdf:RDF>
  </metadata>
  <g
     id="layer2"
     style="display:none">
    <rect
       width="86"
       height="85"
       rx="6"
       ry="6"
       x="5"
       y="7"
       clip-path="url(#clipPath3625)"
       id="rect3745"
       style="opacity:0.9;fill:url(#ButtonShadow);fill-opacity:1;fill-rule:nonzero;stroke:none;filter:url(#filter3174)" />
  </g>
  <g
     id="layer3">
    <path
       d="M 12,3.96875 C 6.4889098,3.96875 1.96875,8.4889098 1.96875,14 l 0,71 c 0,5.51109 4.5201597,10.03125 10.03125,10.03125 l 72,0 c 5.51109,0 10.03125,-4.52016 10.03125,-10.03125 l 0,-71 C 94.03125,8.4889097 89.51109,3.96875 84,3.96875 l -72,0 z M 12,6 84,6 c 3.324,0 6,2.676 6,6 l 0,72 c 0,3.324 -2.676,6 -6,6 L 12,90 C 8.676,90 6,87.324 6,84 L 6,12 C 6,8.676 8.676,6 12,6 z"
       inkscape:connector-curvature="0"
       id="path3786"
       style="opacity:0.07999998;fill:url(#linearGradient3199);fill-opacity:1;fill-rule:nonzero;stroke:none;display:inline" />
    <path
       d="M 12,4.96875 C 7.0283671,4.96875 2.96875,9.0283671 2.96875,14 l 0,71 c 0,4.971633 4.059617,9.03125 9.03125,9.03125 l 72,0 c 4.971633,0 9.03125,-4.059617 9.03125,-9.03125 l 0,-71 C 93.03125,9.028367 88.971633,4.96875 84,4.96875 l -72,0 z M 12,6 84,6 c 3.324,0 6,2.676 6,6 l 0,72 c 0,3.324 -2.676,6 -6,6 L 12,90 C 8.676,90 6,87.324 6,84 L 6,12 C 6,8.676 8.676,6 12,6 z"
       inkscape:connector-curvature="0"
       id="path3778"
       style="opacity:0.1;fill:url(#linearGradient3780);fill-opacity:1;fill-rule:nonzero;stroke:none;display:inline" />
    <path
       d="M 11.1875,6.03125 C 7.159982,6.4419011 4,9.8664375 4,14 l 0,71 c 0,4.409133 3.590867,8 8,8 l 72,0 c 4.409133,0 8,-3.590867 8,-8 L 92,14 C 92,9.8029382 88.741028,6.3539584 84.625,6.03125 87.657886,6.337417 90,8.88375 90,12 l 0,72 c 0,3.324 -2.676,6 -6,6 L 12,90 C 8.676,90 6,87.324 6,84 L 6,12 c 0,-3.11625 2.342114,-5.662583 5.375,-5.96875 -0.06227,0.00488 -0.12563,-0.00631 -0.1875,0 z"
       inkscape:connector-curvature="0"
       id="path3770"
       style="opacity:0.2;fill:url(#linearGradient3772);fill-opacity:1;fill-rule:nonzero;stroke:none;display:inline" />
    <path
       d="M 6.4375,9.75 C 5.5380109,10.927446 5,12.397277 5,14 l 0,71 c 0,3.878 3.122,7 7,7 l 72,0 c 3.878,0 7,-3.122 7,-7 L 91,14 C 91,12.397277 90.461989,10.927446 89.5625,9.75 89.841816,10.444095 90,11.203625 90,12 l 0,72 c 0,3.324 -2.676,6 -6,6 L 12,90 C 8.676,90 6,87.324 6,84 L 6,12 C 6,11.203625 6.1581836,10.444095 6.4375,9.75 z"
       inkscape:connector-curvature="0"
       id="rect3723"
       style="opacity:0.3;fill:url(#linearGradient3725);fill-opacity:1;fill-rule:nonzero;stroke:none;display:inline" />
    <path
       d="m 6,84 0,1 c 0,3.324 2.676,6 6,6 l 72,0 c 3.324,0 6,-2.676 6,-6 l 0,-1 c 0,3.324 -2.676,6 -6,6 L 12,90 C 8.676,90 6,87.324 6,84 z"
       inkscape:connector-curvature="0"
       id="rect3716"
       style="opacity:0.45;fill:url(#linearGradient3721);fill-opacity:1;fill-rule:nonzero;stroke:none;display:inline" />
  </g>
  <g
     id="layer1"
     style="display:none">
    <rect
       width="84"
       height="84"
       rx="6"
       ry="6"
       x="6"
       y="6"
       id="rect2419"
       style="opacity:0.8;fill:#000000;fill-opacity:1;fill-rule:nonzero;stroke:none" />
    <path
       d="m 14,10 c -2.216,0 -4,1.784 -4,4 l 0,68 c 0,2.216 1.784,4 4,4 l 68,0 c 2.216,0 4,-1.784 4,-4 l 0,-68 c 0,-2.216 -1.784,-4 -4,-4 l -68,0 z m 0,3.0625 68,0 c 0.578769,0 0.9375,0.358731 0.9375,0.9375 l 0,68 c 0,0.578769 -0.358731,0.9375 -0.9375,0.9375 l -68,0 c -0.578769,0 -0.9375,-0.358731 -0.9375,-0.9375 l 0,-68 c 0,-0.578769 0.358731,-0.9375 0.9375,-0.9375 z"
       inkscape:connector-curvature="0"
       id="rect3726"
       style="opacity:0.07999998;fill:#000000;fill-opacity:1;fill-rule:nonzero;stroke:none" />
    <path
       d="M 12,6 C 8.676,6 6,8.676 6,12 l 0,72 c 0,3.324 2.676,6 6,6 l 72,0 c 3.324,0 6,-2.676 6,-6 L 90,12 C 90,8.676 87.324,6 84,6 L 12,6 z m 2,4 68,0 c 2.216,0 4,1.784 4,4 l 0,68 c 0,2.216 -1.784,4 -4,4 l -68,0 c -2.216,0 -4,-1.784 -4,-4 l 0,-68 c 0,-2.216 1.784,-4 4,-4 z"
       inkscape:connector-curvature="0"
       id="rect3629"
       style="fill:url(#linearGradient3643);fill-opacity:1;fill-rule:nonzero;stroke:none" />
    <path
       d="M 12,6 C 8.676,6 6,8.676 6,12 l 0,2 0,68 0,2 c 0,0.334721 0.04135,0.6507 0.09375,0.96875 0.0487,0.295596 0.09704,0.596915 0.1875,0.875 0.00988,0.03038 0.020892,0.0636 0.03125,0.09375 0.098865,0.287771 0.2348802,0.547452 0.375,0.8125 0.1445918,0.273507 0.3156161,0.535615 0.5,0.78125 0.1843839,0.245635 0.3737765,0.473472 0.59375,0.6875 0.439947,0.428056 0.94291,0.814526 1.5,1.09375 0.278545,0.139612 0.5734731,0.246947 0.875,0.34375 -0.2562018,-0.100222 -0.4867109,-0.236272 -0.71875,-0.375 -0.00741,-0.0044 -0.023866,0.0045 -0.03125,0 -0.031933,-0.0193 -0.062293,-0.04251 -0.09375,-0.0625 -0.120395,-0.0767 -0.2310226,-0.163513 -0.34375,-0.25 -0.1061728,-0.0808 -0.2132809,-0.161112 -0.3125,-0.25 C 8.4783201,88.557317 8.3087904,88.373362 8.15625,88.1875 8.0486711,88.057245 7.9378561,87.922215 7.84375,87.78125 7.818661,87.74287 7.805304,87.69538 7.78125,87.65625 7.716487,87.553218 7.6510225,87.451733 7.59375,87.34375 7.4927417,87.149044 7.3880752,86.928049 7.3125,86.71875 7.30454,86.69694 7.288911,86.6782 7.28125,86.65625 7.2494249,86.5643 7.2454455,86.469419 7.21875,86.375 7.1884177,86.268382 7.1483606,86.171969 7.125,86.0625 7.0521214,85.720988 7,85.364295 7,85 L 7,83 7,15 7,13 C 7,10.218152 9.2181517,8 12,8 l 2,0 68,0 2,0 c 2.781848,0 5,2.218152 5,5 l 0,2 0,68 0,2 c 0,0.364295 -0.05212,0.720988 -0.125,1.0625 -0.04415,0.206893 -0.08838,0.397658 -0.15625,0.59375 -0.0077,0.02195 -0.0233,0.04069 -0.03125,0.0625 -0.06274,0.173739 -0.138383,0.367449 -0.21875,0.53125 -0.04158,0.0828 -0.07904,0.169954 -0.125,0.25 -0.0546,0.09721 -0.126774,0.18835 -0.1875,0.28125 -0.09411,0.140965 -0.204921,0.275995 -0.3125,0.40625 -0.143174,0.17445 -0.303141,0.346998 -0.46875,0.5 -0.01117,0.0102 -0.01998,0.02115 -0.03125,0.03125 -0.138386,0.125556 -0.285091,0.234436 -0.4375,0.34375 -0.102571,0.07315 -0.204318,0.153364 -0.3125,0.21875 -0.0074,0.0045 -0.02384,-0.0044 -0.03125,0 -0.232039,0.138728 -0.462548,0.274778 -0.71875,0.375 0.301527,-0.0968 0.596455,-0.204138 0.875,-0.34375 0.55709,-0.279224 1.060053,-0.665694 1.5,-1.09375 0.219973,-0.214028 0.409366,-0.441865 0.59375,-0.6875 0.184384,-0.245635 0.355408,-0.507743 0.5,-0.78125 0.14012,-0.265048 0.276135,-0.524729 0.375,-0.8125 0.01041,-0.03078 0.02133,-0.06274 0.03125,-0.09375 0.09046,-0.278085 0.1388,-0.579404 0.1875,-0.875 C 89.95865,84.6507 90,84.334721 90,84 l 0,-2 0,-68 0,-2 C 90,8.676 87.324,6 84,6 L 12,6 z"
       inkscape:connector-curvature="0"
       id="rect3728"
       style="fill:url(#linearGradient3188);fill-opacity:1;fill-rule:nonzero;stroke:none" />
    <path
       d="M 12,90 C 8.676,90 6,87.324 6,84 L 6,82 6,14 6,12 c 0,-0.334721 0.04135,-0.6507 0.09375,-0.96875 0.0487,-0.295596 0.09704,-0.596915 0.1875,-0.875 C 6.29113,10.12587 6.302142,10.09265 6.3125,10.0625 6.411365,9.774729 6.5473802,9.515048 6.6875,9.25 6.8320918,8.976493 7.0031161,8.714385 7.1875,8.46875 7.3718839,8.223115 7.5612765,7.995278 7.78125,7.78125 8.221197,7.353194 8.72416,6.966724 9.28125,6.6875 9.559795,6.547888 9.8547231,6.440553 10.15625,6.34375 9.9000482,6.443972 9.6695391,6.580022 9.4375,6.71875 c -0.00741,0.0044 -0.023866,-0.0045 -0.03125,0 -0.031933,0.0193 -0.062293,0.04251 -0.09375,0.0625 -0.120395,0.0767 -0.2310226,0.163513 -0.34375,0.25 -0.1061728,0.0808 -0.2132809,0.161112 -0.3125,0.25 C 8.4783201,7.442683 8.3087904,7.626638 8.15625,7.8125 8.0486711,7.942755 7.9378561,8.077785 7.84375,8.21875 7.818661,8.25713 7.805304,8.30462 7.78125,8.34375 7.716487,8.446782 7.6510225,8.548267 7.59375,8.65625 7.4927417,8.850956 7.3880752,9.071951 7.3125,9.28125 7.30454,9.30306 7.288911,9.3218 7.28125,9.34375 7.2494249,9.4357 7.2454455,9.530581 7.21875,9.625 7.1884177,9.731618 7.1483606,9.828031 7.125,9.9375 7.0521214,10.279012 7,10.635705 7,11 l 0,2 0,68 0,2 c 0,2.781848 2.2181517,5 5,5 l 2,0 68,0 2,0 c 2.781848,0 5,-2.218152 5,-5 l 0,-2 0,-68 0,-2 C 89,10.635705 88.94788,10.279012 88.875,9.9375 88.83085,9.730607 88.78662,9.539842 88.71875,9.34375 88.71105,9.3218 88.69545,9.30306 88.6875,9.28125 88.62476,9.107511 88.549117,8.913801 88.46875,8.75 88.42717,8.6672 88.38971,8.580046 88.34375,8.5 88.28915,8.40279 88.216976,8.31165 88.15625,8.21875 88.06214,8.077785 87.951329,7.942755 87.84375,7.8125 87.700576,7.63805 87.540609,7.465502 87.375,7.3125 87.36383,7.3023 87.35502,7.29135 87.34375,7.28125 87.205364,7.155694 87.058659,7.046814 86.90625,6.9375 86.803679,6.86435 86.701932,6.784136 86.59375,6.71875 c -0.0074,-0.0045 -0.02384,0.0044 -0.03125,0 -0.232039,-0.138728 -0.462548,-0.274778 -0.71875,-0.375 0.301527,0.0968 0.596455,0.204138 0.875,0.34375 0.55709,0.279224 1.060053,0.665694 1.5,1.09375 0.219973,0.214028 0.409366,0.441865 0.59375,0.6875 0.184384,0.245635 0.355408,0.507743 0.5,0.78125 0.14012,0.265048 0.276135,0.524729 0.375,0.8125 0.01041,0.03078 0.02133,0.06274 0.03125,0.09375 0.09046,0.278085 0.1388,0.579404 0.1875,0.875 C 89.95865,11.3493 90,11.665279 90,12 l 0,2 0,68 0,2 c 0,3.324 -2.676,6 -6,6 l -72,0 z"
       inkscape:connector-curvature="0"
       id="path3615"
       style="opacity:0.6;fill:url(#radialGradient3619);fill-opacity:1;fill-rule:nonzero;stroke:none" />
    <rect
       width="84"
       height="84"
       rx="6"
       ry="6"
       x="6"
       y="106"
       id="rect2841"
       style="fill:url(#linearGradient2843);fill-opacity:1;fill-rule:nonzero;stroke:none" />
    <rect
       width="76"
       height="76"
       rx="4"
       ry="4"
       x="10"
       y="110"
       id="rect3634"
       style="fill:#ff0000;fill-opacity:1;fill-rule:nonzero;stroke:none" />
    <path
       d="m 14,9 c -2.752703,0 -5,2.247297 -5,5 l 0,68 c 0,2.752703 2.247297,5 5,5 l 68,0 c 2.752703,0 5,-2.247297 5,-5 L 87,14 C 87,11.247297 84.752703,9 82,9 L 14,9 z m 0,2 68,0 c 1.679297,0 3,1.320703 3,3 l 0,68 c 0,1.679297 -1.320703,3 -3,3 l -68,0 c -1.679297,0 -3,-1.320703 -3,-3 l 0,-68 c 0,-1.679297 1.320703,-3 3,-3 z"
       inkscape:connector-curvature="0"
       transform="translate(-110,0)"
       clip-path="url(#clipPath3649)"
       id="rect3647"
       style="font-size:medium;font-style:normal;font-variant:normal;font-weight:normal;font-stretch:normal;text-indent:0;text-align:start;text-decoration:none;line-height:normal;letter-spacing:normal;word-spacing:normal;text-transform:none;direction:ltr;block-progression:tb;writing-mode:lr-tb;text-anchor:start;color:#000000;fill:#000000;fill-opacity:1;stroke:none;stroke-width:2;marker:none;visibility:visible;display:inline;overflow:visible;filter:url(#filter3657);enable-background:accumulate;font-family:Abandoned Bitplane;-inkscape-font-specification:Abandoned Bitplane" />
    <path
       d="m 14.089286,10 c -2.216,0 -4,1.784 -4,4 l 0,68 c 0,2.216 1.784,4 4,4 l 68,0 c 2.216,0 4,-1.784 4,-4 l 0,-68 c 0,-2.216 -1.784,-4 -4,-4 l -68,0 z m 0,2 68,0 c 1.140301,0 2,0.859699 2,2 l 0,68 c 0,1.140301 -0.859699,2 -2,2 l -68,0 c -1.140301,0 -2,-0.859699 -2,-2 l 0,-68 c 0,-1.140301 0.859699,-2 2,-2 z"
       inkscape:connector-curvature="0"
       id="path3709"
       style="opacity:0.16000001;fill:#000000;fill-opacity:1;fill-rule:nonzero;stroke:none" />
    <path
       d="m 14,10 c -2.216,0 -4,1.784 -4,4 l 0,68 c 0,2.216 1.784,4 4,4 l 68,0 c 2.216,0 4,-1.784 4,-4 l 0,-68 c 0,-2.216 -1.784,-4 -4,-4 l -68,0 z m 0,1 68,0 c 1.673848,0 3,1.326152 3,3 l 0,68 c 0,1.673848 -1.326152,3 -3,3 l -68,0 c -1.673848,0 -3,-1.326152 -3,-3 l 0,-68 c 0,-1.673848 1.326152,-3 3,-3 z"
       inkscape:connector-curvature="0"
       id="path3707"
       style="opacity:0.36000001;fill:#000000;fill-opacity:1;fill-rule:nonzero;stroke:none" />
  </g>
  <g
     id="layer4"
     style="display:inline">
    <rect
       width="84"
       height="84"
       rx="6"
       ry="6"
       x="6"
       y="6"
       id="rect2419-9"
       style="opacity:0.6;fill:#000000;fill-opacity:1;fill-rule:nonzero;stroke:none;display:inline" />
    <path
       d="M 12,6 C 8.676,6 6,8.676 6,12 l 0,2 0,68 0,2 c 0,0.334721 0.04135,0.6507 0.09375,0.96875 0.0487,0.295596 0.09704,0.596915 0.1875,0.875 0.00988,0.03038 0.020892,0.0636 0.03125,0.09375 0.098865,0.287771 0.2348802,0.547452 0.375,0.8125 0.1445918,0.273507 0.3156161,0.535615 0.5,0.78125 0.1843839,0.245635 0.3737765,0.473472 0.59375,0.6875 0.439947,0.428056 0.94291,0.814526 1.5,1.09375 0.278545,0.139612 0.5734731,0.246947 0.875,0.34375 -0.2562018,-0.100222 -0.4867109,-0.236272 -0.71875,-0.375 -0.00741,-0.0044 -0.023866,0.0045 -0.03125,0 -0.031933,-0.0193 -0.062293,-0.04251 -0.09375,-0.0625 -0.120395,-0.0767 -0.2310226,-0.163513 -0.34375,-0.25 -0.1061728,-0.0808 -0.2132809,-0.161112 -0.3125,-0.25 C 8.4783201,88.557317 8.3087904,88.373362 8.15625,88.1875 8.0486711,88.057245 7.9378561,87.922215 7.84375,87.78125 7.818661,87.74287 7.805304,87.69538 7.78125,87.65625 7.716487,87.553218 7.6510225,87.451733 7.59375,87.34375 7.4927417,87.149044 7.3880752,86.928049 7.3125,86.71875 7.30454,86.69694 7.288911,86.6782 7.28125,86.65625 7.2494249,86.5643 7.2454455,86.469419 7.21875,86.375 7.1884177,86.268382 7.1483606,86.171969 7.125,86.0625 7.0521214,85.720988 7,85.364295 7,85 L 7,83 7,15 7,13 C 7,10.218152 9.2181517,8 12,8 l 2,0 68,0 2,0 c 2.781848,0 5,2.218152 5,5 l 0,2 0,68 0,2 c 0,0.364295 -0.05212,0.720988 -0.125,1.0625 -0.04415,0.206893 -0.08838,0.397658 -0.15625,0.59375 -0.0077,0.02195 -0.0233,0.04069 -0.03125,0.0625 -0.06274,0.173739 -0.138383,0.367449 -0.21875,0.53125 -0.04158,0.0828 -0.07904,0.169954 -0.125,0.25 -0.0546,0.09721 -0.126774,0.18835 -0.1875,0.28125 -0.09411,0.140965 -0.204921,0.275995 -0.3125,0.40625 -0.143174,0.17445 -0.303141,0.346998 -0.46875,0.5 -0.01117,0.0102 -0.01998,0.02115 -0.03125,0.03125 -0.138386,0.125556 -0.285091,0.234436 -0.4375,0.34375 -0.102571,0.07315 -0.204318,0.153364 -0.3125,0.21875 -0.0074,0.0045 -0.02384,-0.0044 -0.03125,0 -0.232039,0.138728 -0.462548,0.274778 -0.71875,0.375 0.301527,-0.0968 0.596455,-0.204138 0.875,-0.34375 0.55709,-0.279224 1.060053,-0.665694 1.5,-1.09375 0.219973,-0.214028 0.409366,-0.441865 0.59375,-0.6875 0.184384,-0.245635 0.355408,-0.507743 0.5,-0.78125 0.14012,-0.265048 0.276135,-0.524729 0.375,-0.8125 0.01041,-0.03078 0.02133,-0.06274 0.03125,-0.09375 0.09046,-0.278085 0.1388,-0.579404 0.1875,-0.875 C 89.95865,84.6507 90,84.334721 90,84 l 0,-2 0,-68 0,-2 C 90,8.676 87.324,6 84,6 L 12,6 z"
       inkscape:connector-curvature="0"
       id="rect3728-4"
       style="opacity:0.01000001;fill:url(#linearGradient3188-8);fill-opacity:1;fill-rule:nonzero;stroke:none;display:inline" />
    <path
       d="M 12,90 C 8.676,90 6,87.324 6,84 L 6,82 6,14 6,12 c 0,-0.334721 0.04135,-0.6507 0.09375,-0.96875 0.0487,-0.295596 0.09704,-0.596915 0.1875,-0.875 C 6.29113,10.12587 6.302142,10.09265 6.3125,10.0625 6.411365,9.774729 6.5473802,9.515048 6.6875,9.25 6.8320918,8.976493 7.0031161,8.714385 7.1875,8.46875 7.3718839,8.223115 7.5612765,7.995278 7.78125,7.78125 8.221197,7.353194 8.72416,6.966724 9.28125,6.6875 9.559795,6.547888 9.8547231,6.440553 10.15625,6.34375 9.9000482,6.443972 9.6695391,6.580022 9.4375,6.71875 c -0.00741,0.0044 -0.023866,-0.0045 -0.03125,0 -0.031933,0.0193 -0.062293,0.04251 -0.09375,0.0625 -0.120395,0.0767 -0.2310226,0.163513 -0.34375,0.25 -0.1061728,0.0808 -0.2132809,0.161112 -0.3125,0.25 C 8.4783201,7.442683 8.3087904,7.626638 8.15625,7.8125 8.0486711,7.942755 7.9378561,8.077785 7.84375,8.21875 7.818661,8.25713 7.805304,8.30462 7.78125,8.34375 7.716487,8.446782 7.6510225,8.548267 7.59375,8.65625 7.4927417,8.850956 7.3880752,9.071951 7.3125,9.28125 7.30454,9.30306 7.288911,9.3218 7.28125,9.34375 7.2494249,9.4357 7.2454455,9.530581 7.21875,9.625 7.1884177,9.731618 7.1483606,9.828031 7.125,9.9375 7.0521214,10.279012 7,10.635705 7,11 l 0,2 0,68 0,2 c 0,2.781848 2.2181517,5 5,5 l 2,0 68,0 2,0 c 2.781848,0 5,-2.218152 5,-5 l 0,-2 0,-68 0,-2 C 89,10.635705 88.94788,10.279012 88.875,9.9375 88.83085,9.730607 88.78662,9.539842 88.71875,9.34375 88.71105,9.3218 88.69545,9.30306 88.6875,9.28125 88.62476,9.107511 88.549117,8.913801 88.46875,8.75 88.42717,8.6672 88.38971,8.580046 88.34375,8.5 88.28915,8.40279 88.216976,8.31165 88.15625,8.21875 88.06214,8.077785 87.951329,7.942755 87.84375,7.8125 87.700576,7.63805 87.540609,7.465502 87.375,7.3125 87.36383,7.3023 87.35502,7.29135 87.34375,7.28125 87.205364,7.155694 87.058659,7.046814 86.90625,6.9375 86.803679,6.86435 86.701932,6.784136 86.59375,6.71875 c -0.0074,-0.0045 -0.02384,0.0044 -0.03125,0 -0.232039,-0.138728 -0.462548,-0.274778 -0.71875,-0.375 0.301527,0.0968 0.596455,0.204138 0.875,0.34375 0.55709,0.279224 1.060053,0.665694 1.5,1.09375 0.219973,0.214028 0.409366,0.441865 0.59375,0.6875 0.184384,0.245635 0.355408,0.507743 0.5,0.78125 0.14012,0.265048 0.276135,0.524729 0.375,0.8125 0.01041,0.03078 0.02133,0.06274 0.03125,0.09375 0.09046,0.278085 0.1388,0.579404 0.1875,0.875 C 89.95865,11.3493 90,11.665279 90,12 l 0,2 0,68 0,2 c 0,3.324 -2.676,6 -6,6 l -72,0 z"
       inkscape:connector-curvature="0"
       id="path3615-6"
       style="opacity:0.15;fill:url(#radialGradient3619-3);fill-opacity:1;fill-rule:nonzero;stroke:none;display:inline" />
  </g>
  <g
     id="layer5"
     style="display:none">
    <rect
       width="66"
       height="66"
       rx="12"
       ry="12"
       x="15"
       y="15"
       clip-path="url(#clipPath3613)"
       id="rect3171"
       style="opacity:0.1;fill:url(#linearGradient3613);fill-opacity:1;fill-rule:nonzero;stroke:#ffffff;stroke-width:0.5;stroke-linecap:round;stroke-linejoin:miter;stroke-miterlimit:4;stroke-opacity:1;stroke-dasharray:none;stroke-dashoffset:0;filter:url(#filter3794)" />
  </g>
  <rect
     width="16"
     height="16"
     x="10.181411"
     y="211.17563"
     transform="matrix(0,1,1,0,0,0)"
     id="rect3897"
     style="color:#000000;display:inline;overflow:visible;visibility:visible;fill:url(#linearGradient3905);fill-opacity:1;fill-rule:nonzero;stroke:none;stroke-width:2;marker:none;enable-background:accumulate" />
  <text
     x="211.17563"
     y="58.181412"
     id="text3907"
     xml:space="preserve"
     style="font-style:normal;font-variant:normal;font-weight:normal;font-stretch:normal;font-size:4px;line-height:125%;font-family:'Liberation Sans';-inkscape-font-specification:'Liberation Sans';text-align:start;letter-spacing:0px;word-spacing:0px;writing-mode:lr-tb;text-anchor:start;fill:#000000;fill-opacity:1;stroke:none"><tspan
       x="211.17563"
       y="58.181412"
       id="tspan3909">Shadow opacity : 30, 15, 10, (8)</tspan></text>
  <rect
     width="16"
     height="16"
     x="-50.181412"
     y="211.17563"
     transform="rotate(-90)"
     id="rect3911"
     style="color:#000000;display:inline;overflow:visible;visibility:visible;fill:url(#linearGradient3913);fill-opacity:1;fill-rule:nonzero;stroke:none;stroke-width:2;marker:none;enable-background:accumulate" />
  <text
     x="231.17563"
     y="42.181412"
     id="text3951"
     xml:space="preserve"
     style="font-style:normal;font-variant:normal;font-weight:normal;font-stretch:normal;font-size:4px;line-height:125%;font-family:'Liberation Sans';-inkscape-font-specification:'Liberation Sans';text-align:start;letter-spacing:0px;word-spacing:0px;writing-mode:lr-tb;text-anchor:start;fill:#000000;fill-opacity:1;stroke:none"><tspan
       x="231.17563"
       y="42.181412"
       id="tspan3953">Bevel opacity : 20 / 10</tspan></text>
  <text
     x="231.17563"
     y="18.181412"
     id="text3955"
     xml:space="preserve"
     style="font-style:normal;font-variant:normal;font-weight:normal;font-stretch:normal;font-size:4px;line-height:125%;font-family:'Liberation Sans';-inkscape-font-specification:'Liberation Sans';text-align:start;letter-spacing:0px;word-spacing:0px;writing-mode:lr-tb;text-anchor:start;fill:#000000;fill-opacity:1;stroke:none"><tspan
       x="231.17563"
       y="18.181412"
       id="tspan3957">Bevel opacity : 75 / 15</tspan></text>
  <g
     id="g2249">
    <path
       d="m 166.64438,36.150161 a 0.98822587,0.98822587 0 0 0 0,0.03125 c -3e-4,3.2e-5 -0.1872,-5.9e-5 -0.1875,0 -3e-4,5.9e-5 -0.15596,0.06241 -0.15625,0.0625 -2.9e-4,8.6e-5 -0.18722,0.06239 -0.1875,0.0625 -2.8e-4,1.11e-4 -0.15598,0.06236 -0.15625,0.0625 -2.7e-4,1.36e-4 -0.15599,0.09359 -0.15625,0.09375 -2.6e-4,1.6e-4 -0.15601,0.09357 -0.15625,0.09375 -2.4e-4,1.82e-4 -0.12477,0.09355 -0.125,0.09375 -2e-4,1.78e-4 -0.0695,0.101121 -0.0937,0.125 -0.004,0.0034 -0.0312,-2.8e-5 -0.0312,0 l -10.21875,10.25 -10.25,-10.25 c -1.4e-4,-1.39e-4 -0.0624,-0.09362 -0.0625,-0.09375 -1.5e-4,-1.3e-4 -0.0936,-0.06238 -0.0937,-0.0625 -1.5e-4,-1.22e-4 -0.0936,-0.06239 -0.0937,-0.0625 -1.6e-4,-1.13e-4 -0.0936,-0.0624 -0.0937,-0.0625 -1.7e-4,-1.03e-4 -0.0936,-0.06241 -0.0937,-0.0625 -1.7e-4,-9.3e-5 -0.12482,-0.06242 -0.125,-0.0625 -1.8e-4,-8.3e-5 -0.0936,-0.03118 -0.0937,-0.03125 -1.8e-4,-7.3e-5 -0.0936,-0.06244 -0.0937,-0.0625 -1.9e-4,-6.2e-5 -0.12481,-0.0312 -0.125,-0.03125 -1.9e-4,-5.1e-5 -0.12481,-0.03121 -0.125,-0.03125 -1.9e-4,-4e-5 -0.0936,2.9e-5 -0.0937,0 -1.9e-4,-2.9e-5 -0.1248,-0.03123 -0.125,-0.03125 -2e-4,-1.8e-5 -0.0936,7e-6 -0.0937,0 -2e-4,-7e-6 -0.1248,-5e-6 -0.125,0 -2e-4,5e-6 -0.1248,-1.6e-5 -0.125,0 -1.4e-4,1.1e-5 -0.0291,0.02752 -0.0625,0.03125 -0.0143,0.0016 -0.0312,-8e-6 -0.0312,0 -0.0382,0.0057 -0.15602,-4.5e-5 -0.15625,0 -2.8e-4,5.4e-5 -0.15598,0.06242 -0.15625,0.0625 -2.8e-4,7.7e-5 -0.15598,0.03115 -0.15625,0.03125 -2.7e-4,1e-4 -0.15599,0.06238 -0.15625,0.0625 -2.6e-4,1.22e-4 -0.156,0.09361 -0.15625,0.09375 -2.5e-4,1.43e-4 -0.12477,0.09359 -0.125,0.09375 -2.3e-4,1.64e-4 -0.12478,0.09357 -0.125,0.09375 -2.2e-4,1.83e-4 -0.1248,0.09355 -0.125,0.09375 a 0.98822587,0.98822587 0 0 0 0,0.03125 l -9.34375,9.3125 v 0.03125 c -0.0191,0.01939 -0.0624,0.0624 -0.0625,0.0625 -1.2e-4,1.25e-4 -0.0624,0.06237 -0.0625,0.0625 -1.1e-4,1.3e-4 -0.0624,0.06236 -0.0625,0.0625 -1e-4,1.36e-4 -0.0624,0.09361 -0.0625,0.09375 -1e-4,1.41e-4 -0.0624,0.0936 -0.0625,0.09375 -9e-5,1.46e-4 -0.0624,0.06235 -0.0625,0.0625 -8e-5,1.5e-4 -0.0312,0.0936 -0.0312,0.09375 -8e-5,1.54e-4 -0.0312,0.09359 -0.0312,0.09375 -7e-5,1.57e-4 -0.0624,0.09359 -0.0625,0.09375 -6e-5,1.61e-4 -0.0312,0.09359 -0.0312,0.09375 -5e-5,1.63e-4 4e-5,0.09358 0,0.09375 -4e-5,1.66e-4 -0.0312,0.09358 -0.0312,0.09375 -3e-5,1.68e-4 -0.0312,0.09358 -0.0312,0.09375 -3e-5,1.69e-4 2e-5,0.12483 0,0.125 -2e-5,1.7e-4 10e-6,0.09358 0,0.09375 -1e-5,1.71e-4 0,0.09358 0,0.09375 0,1.71e-4 -1e-5,0.09358 0,0.09375 10e-6,1.71e-4 -2e-5,0.09358 0,0.09375 2e-5,1.7e-4 -3e-5,0.124831 0,0.125 3e-5,1.69e-4 0.0312,0.09358 0.0312,0.09375 3e-5,1.68e-4 0.0312,0.09358 0.0312,0.09375 4e-5,1.66e-4 -5e-5,0.09359 0,0.09375 5e-5,1.63e-4 0.0312,0.09359 0.0312,0.09375 6e-5,1.61e-4 0.0624,0.09359 0.0625,0.09375 7e-5,1.57e-4 0.0312,0.0936 0.0312,0.09375 7e-5,1.54e-4 0.0312,0.0936 0.0312,0.09375 8e-5,1.5e-4 0.0624,0.06235 0.0625,0.0625 9e-5,1.46e-4 0.0624,0.09361 0.0625,0.09375 10e-5,1.41e-4 0.0624,0.09361 0.0625,0.09375 10e-5,1.36e-4 0.0624,0.06237 0.0625,0.0625 1.1e-4,1.3e-4 0.0624,0.06238 0.0625,0.0625 9e-5,9.6e-5 0.0434,0.04311 0.0625,0.0625 0.006,0.0058 -3e-5,0.03122 0,0.03125 l 10.25,10.21875 -10.25,10.21875 v 0.03125 c -0.0191,0.01939 -0.0624,0.0624 -0.0625,0.0625 -1.2e-4,1.25e-4 -0.0624,0.06237 -0.0625,0.0625 -1.1e-4,1.3e-4 -0.0624,0.06236 -0.0625,0.0625 -1e-4,1.36e-4 -0.0624,0.09361 -0.0625,0.09375 -1e-4,1.41e-4 -0.0624,0.0936 -0.0625,0.09375 -9e-5,1.46e-4 -0.0624,0.06235 -0.0625,0.0625 -8e-5,1.5e-4 -0.0312,0.0936 -0.0312,0.09375 -8e-5,1.54e-4 -0.0312,0.09359 -0.0312,0.09375 -7e-5,1.57e-4 -0.0624,0.09359 -0.0625,0.09375 -6e-5,1.61e-4 -0.0312,0.09359 -0.0312,0.09375 -5e-5,1.63e-4 4e-5,0.09358 0,0.09375 -4e-5,1.66e-4 -0.0312,0.09358 -0.0312,0.09375 -3e-5,1.68e-4 -0.0312,0.09358 -0.0312,0.09375 -3e-5,1.69e-4 2e-5,0.12483 0,0.125 -2e-5,1.7e-4 10e-6,0.09358 0,0.09375 -1e-5,1.71e-4 0,0.09358 0,0.09375 0,1.71e-4 -1e-5,0.09358 0,0.09375 10e-6,1.71e-4 -2e-5,0.09358 0,0.09375 2e-5,1.7e-4 -3e-5,0.124831 0,0.125 3e-5,1.69e-4 0.0312,0.09358 0.0312,0.09375 3e-5,1.68e-4 0.0312,0.09358 0.0312,0.09375 4e-5,1.66e-4 -5e-5,0.09359 0,0.09375 5e-5,1.63e-4 0.0312,0.09359 0.0312,0.09375 6e-5,1.61e-4 0.0624,0.09359 0.0625,0.09375 7e-5,1.57e-4 0.0312,0.0936 0.0312,0.09375 7e-5,1.54e-4 0.0312,0.0936 0.0312,0.09375 8e-5,1.5e-4 0.0624,0.06235 0.0625,0.0625 9e-5,1.46e-4 0.0624,0.09361 0.0625,0.09375 10e-5,1.41e-4 0.0624,0.09361 0.0625,0.09375 10e-5,1.36e-4 0.0624,0.06237 0.0625,0.0625 1.1e-4,1.3e-4 0.0624,0.06238 0.0625,0.0625 9e-5,9.6e-5 0.0434,0.04311 0.0625,0.0625 0.006,0.0058 -3e-5,0.03122 0,0.03125 l 9.34375,9.3125 c 0.0194,0.01913 0.0624,0.06241 0.0625,0.0625 1.2e-4,1.17e-4 0.0624,0.06239 0.0625,0.0625 1.3e-4,1.11e-4 0.0624,0.0624 0.0625,0.0625 1.4e-4,1.04e-4 0.0936,0.0624 0.0937,0.0625 1.4e-4,9.7e-5 0.0936,0.06241 0.0937,0.0625 1.5e-4,9e-5 0.0623,0.06242 0.0625,0.0625 1.5e-4,8.2e-5 0.0936,0.03118 0.0937,0.03125 1.5e-4,7.5e-5 0.0936,0.03118 0.0937,0.03125 1.6e-4,6.7e-5 0.0936,0.06244 0.0937,0.0625 1.6e-4,5.9e-5 0.0936,0.0312 0.0937,0.03125 1.6e-4,5.1e-5 0.0936,-4.3e-5 0.0937,0 1.7e-4,4.3e-5 0.0936,0.03122 0.0937,0.03125 1.7e-4,3.4e-5 0.0936,0.03122 0.0937,0.03125 1.7e-4,2.6e-5 0.12483,-1.7e-5 0.125,0 1.7e-4,1.7e-5 0.0936,-9e-6 0.0937,0 1.7e-4,9e-6 0.0936,0 0.0937,0 1.7e-4,0 0.0936,9e-6 0.0937,0 1.7e-4,-9e-6 0.0936,1.7e-5 0.0937,0 1.7e-4,-1.7e-5 0.12483,2.6e-5 0.125,0 1.7e-4,-2.6e-5 0.0936,-0.03122 0.0937,-0.03125 1.7e-4,-3.4e-5 0.0936,-0.03121 0.0937,-0.03125 1.7e-4,-4.3e-5 0.0936,5.1e-5 0.0937,0 1.6e-4,-5.1e-5 0.0936,-0.03119 0.0937,-0.03125 1.6e-4,-5.9e-5 0.0936,-0.06243 0.0937,-0.0625 1.6e-4,-6.7e-5 0.0936,-0.03118 0.0937,-0.03125 1.5e-4,-7.5e-5 0.0936,-0.03117 0.0937,-0.03125 1.5e-4,-8.2e-5 0.0623,-0.06241 0.0625,-0.0625 1.5e-4,-9e-5 0.0936,-0.0624 0.0937,-0.0625 1.4e-4,-9.7e-5 0.0936,-0.0624 0.0937,-0.0625 1.4e-4,-1.04e-4 0.0624,-0.06239 0.0625,-0.0625 1.3e-4,-1.11e-4 0.0624,-0.06238 0.0625,-0.0625 10e-5,-9e-5 0.0431,-0.04337 0.0625,-0.0625 h 0.0312 l 10.21875,-10.25 10.25,10.25 c 0.0194,0.01913 0.0624,0.06241 0.0625,0.0625 1.2e-4,1.17e-4 0.0624,0.06239 0.0625,0.0625 1.3e-4,1.11e-4 0.0624,0.0624 0.0625,0.0625 1.4e-4,1.04e-4 0.0936,0.0624 0.0937,0.0625 1.4e-4,9.7e-5 0.0936,0.06241 0.0937,0.0625 1.5e-4,9e-5 0.0623,0.06242 0.0625,0.0625 1.5e-4,8.2e-5 0.0936,0.03118 0.0937,0.03125 1.5e-4,7.5e-5 0.0936,0.03118 0.0937,0.03125 1.6e-4,6.7e-5 0.0936,0.06244 0.0937,0.0625 1.6e-4,5.9e-5 0.0936,0.0312 0.0937,0.03125 1.6e-4,5.1e-5 0.0936,-4.3e-5 0.0937,0 1.7e-4,4.3e-5 0.0936,0.03122 0.0937,0.03125 1.7e-4,3.4e-5 0.0936,0.03122 0.0937,0.03125 1.7e-4,2.6e-5 0.12483,-1.7e-5 0.125,0 1.7e-4,1.7e-5 0.0936,-9e-6 0.0937,0 1.7e-4,9e-6 0.0936,0 0.0937,0 1.7e-4,0 0.0936,9e-6 0.0937,0 1.7e-4,-9e-6 0.0936,1.7e-5 0.0937,0 1.7e-4,-1.7e-5 0.12483,2.6e-5 0.125,0 1.7e-4,-2.6e-5 0.0936,-0.03122 0.0937,-0.03125 1.7e-4,-3.4e-5 0.0936,-0.03121 0.0937,-0.03125 1.7e-4,-4.3e-5 0.0936,5.1e-5 0.0937,0 1.6e-4,-5.1e-5 0.0936,-0.03119 0.0937,-0.03125 1.6e-4,-5.9e-5 0.0936,-0.06243 0.0937,-0.0625 1.6e-4,-6.7e-5 0.0936,-0.03118 0.0937,-0.03125 1.5e-4,-7.5e-5 0.0936,-0.03117 0.0937,-0.03125 1.5e-4,-8.2e-5 0.0623,-0.06241 0.0625,-0.0625 1.5e-4,-9e-5 0.0936,-0.0624 0.0937,-0.0625 1.4e-4,-9.7e-5 0.0936,-0.0624 0.0937,-0.0625 1.4e-4,-1.04e-4 0.0624,-0.06239 0.0625,-0.0625 1.3e-4,-1.11e-4 0.0624,-0.06238 0.0625,-0.0625 10e-5,-9e-5 0.0431,-0.04337 0.0625,-0.0625 h 0.0312 l 9.3125,-9.3125 v -0.03125 c 0.0191,-0.01939 0.0624,-0.0624 0.0625,-0.0625 1.2e-4,-1.25e-4 0.0624,-0.06237 0.0625,-0.0625 1.1e-4,-1.3e-4 0.0624,-0.06236 0.0625,-0.0625 10e-5,-1.36e-4 0.0624,-0.09361 0.0625,-0.09375 10e-5,-1.41e-4 0.0624,-0.0936 0.0625,-0.09375 9e-5,-1.46e-4 0.0624,-0.06235 0.0625,-0.0625 8e-5,-1.5e-4 0.0312,-0.0936 0.0312,-0.09375 7e-5,-1.54e-4 0.0312,-0.09359 0.0312,-0.09375 7e-5,-1.57e-4 0.0624,-0.09359 0.0625,-0.09375 6e-5,-1.61e-4 0.0312,-0.09359 0.0312,-0.09375 5e-5,-1.63e-4 -4e-5,-0.09358 0,-0.09375 4e-5,-1.66e-4 0.0312,-0.09358 0.0312,-0.09375 3e-5,-1.68e-4 0.0312,-0.09358 0.0312,-0.09375 3e-5,-1.69e-4 -2e-5,-0.12483 0,-0.125 2e-5,-1.7e-4 -1e-5,-0.09358 0,-0.09375 10e-6,-1.71e-4 0,-0.09358 0,-0.09375 0,-1.71e-4 10e-6,-0.09358 0,-0.09375 -1e-5,-1.71e-4 2e-5,-0.09358 0,-0.09375 -2e-5,-1.7e-4 3e-5,-0.124831 0,-0.125 -3e-5,-1.69e-4 -0.0312,-0.09358 -0.0312,-0.09375 -3e-5,-1.68e-4 -0.0312,-0.09358 -0.0312,-0.09375 -4e-5,-1.66e-4 5e-5,-0.09359 0,-0.09375 -5e-5,-1.63e-4 -0.0312,-0.09359 -0.0312,-0.09375 -6e-5,-1.61e-4 -0.0624,-0.09359 -0.0625,-0.09375 -7e-5,-1.57e-4 -0.0312,-0.0936 -0.0312,-0.09375 -8e-5,-1.54e-4 -0.0312,-0.0936 -0.0312,-0.09375 -8e-5,-1.5e-4 -0.0624,-0.06235 -0.0625,-0.0625 -9e-5,-1.46e-4 -0.0624,-0.09361 -0.0625,-0.09375 -1e-4,-1.41e-4 -0.0624,-0.09361 -0.0625,-0.09375 -1e-4,-1.36e-4 -0.0624,-0.06237 -0.0625,-0.0625 -1.1e-4,-1.3e-4 -0.0624,-0.06238 -0.0625,-0.0625 -9e-5,-9.6e-5 -0.0434,-0.04311 -0.0625,-0.0625 l -10.25,-10.25 10.25,-10.25 c 0.0191,-0.01939 0.0624,-0.0624 0.0625,-0.0625 1.2e-4,-1.25e-4 0.0624,-0.06237 0.0625,-0.0625 1.1e-4,-1.3e-4 0.0624,-0.06236 0.0625,-0.0625 10e-5,-1.36e-4 0.0624,-0.09361 0.0625,-0.09375 10e-5,-1.41e-4 0.0624,-0.0936 0.0625,-0.09375 9e-5,-1.46e-4 0.0624,-0.06235 0.0625,-0.0625 8e-5,-1.5e-4 0.0312,-0.0936 0.0312,-0.09375 7e-5,-1.54e-4 0.0312,-0.09359 0.0312,-0.09375 7e-5,-1.57e-4 0.0624,-0.09359 0.0625,-0.09375 6e-5,-1.61e-4 0.0312,-0.09359 0.0312,-0.09375 5e-5,-1.63e-4 -4e-5,-0.09358 0,-0.09375 4e-5,-1.66e-4 0.0312,-0.09358 0.0312,-0.09375 3e-5,-1.68e-4 0.0312,-0.09358 0.0312,-0.09375 3e-5,-1.69e-4 -2e-5,-0.12483 0,-0.125 2e-5,-1.7e-4 -1e-5,-0.09358 0,-0.09375 10e-6,-1.71e-4 0,-0.09358 0,-0.09375 0,-1.71e-4 10e-6,-0.09358 0,-0.09375 -1e-5,-1.71e-4 2e-5,-0.09358 0,-0.09375 -2e-5,-1.7e-4 3e-5,-0.124831 0,-0.125 -3e-5,-1.69e-4 -0.0312,-0.09358 -0.0312,-0.09375 -3e-5,-1.68e-4 -0.0312,-0.09358 -0.0312,-0.09375 -4e-5,-1.66e-4 5e-5,-0.09359 0,-0.09375 -5e-5,-1.63e-4 -0.0312,-0.09359 -0.0312,-0.09375 -6e-5,-1.61e-4 -0.0624,-0.09359 -0.0625,-0.09375 -7e-5,-1.57e-4 -0.0312,-0.0936 -0.0312,-0.09375 -8e-5,-1.54e-4 -0.0312,-0.0936 -0.0312,-0.09375 -8e-5,-1.5e-4 -0.0624,-0.06235 -0.0625,-0.0625 -9e-5,-1.46e-4 -0.0624,-0.09361 -0.0625,-0.09375 -1e-4,-1.41e-4 -0.0624,-0.09361 -0.0625,-0.09375 -1e-4,-1.36e-4 -0.0624,-0.06237 -0.0625,-0.0625 -1.1e-4,-1.3e-4 -0.0624,-0.06238 -0.0625,-0.0625 -9e-5,-9.6e-5 -0.0434,-0.04311 -0.0625,-0.0625 l -9.3125,-9.34375 c -3e-5,-3.5e-5 -0.0239,0.0075 -0.0312,0 -0.0222,-0.02237 -0.0312,-0.0624 -0.0312,-0.0625 -1.4e-4,-1.33e-4 -0.0936,-0.09362 -0.0937,-0.09375 -1.5e-4,-1.25e-4 -0.0936,-0.06238 -0.0937,-0.0625 -1.5e-4,-1.16e-4 -0.0936,-0.06239 -0.0937,-0.0625 -1.6e-4,-1.07e-4 -0.0936,-0.0624 -0.0937,-0.0625 -1.7e-4,-9.8e-5 -0.0936,-0.06241 -0.0937,-0.0625 -1.7e-4,-8.9e-5 -0.0936,-0.03117 -0.0937,-0.03125 -1.8e-4,-7.9e-5 -0.12482,-0.03118 -0.125,-0.03125 -1.8e-4,-6.9e-5 -0.0936,-0.06244 -0.0937,-0.0625 -1.8e-4,-5.9e-5 -0.0936,-0.0312 -0.0937,-0.03125 -1.9e-4,-4.8e-5 -0.12481,3.8e-5 -0.125,0 -1.9e-4,-3.8e-5 -0.0936,-0.03122 -0.0937,-0.03125 -1.9e-4,-2.7e-5 -0.12481,-0.03123 -0.125,-0.03125 -1.9e-4,-1.6e-5 -0.0936,6e-6 -0.0937,0 -1.9e-4,-6e-6 -0.12481,-5e-6 -0.125,0 -1.9e-4,5e-6 -0.12481,-1.6e-5 -0.125,0 z"
       id="path3734"
       style="display:inline;opacity:0.1;fill:#000000;fill-opacity:1;stroke:none" />
    <path
       d="m 143.39438,37.181411 a 0.99834447,0.99834447 0 0 0 -0.59375,0.28125 l -9.34375,9.34375 a 0.99834447,0.99834447 0 0 0 0,1.4375 l 10.9375,10.9375 -10.9375,10.9375 a 0.99834447,0.99834447 0 0 0 0,1.4375 l 9.34375,9.34375 a 0.99834447,0.99834447 0 0 0 1.4375,0 l 10.9375,-10.9375 10.9375,10.9375 a 0.99834447,0.99834447 0 0 0 1.4375,0 l 9.34375,-9.34375 a 0.99834447,0.99834447 0 0 0 0,-1.4375 l -10.9375,-10.9375 10.9375,-10.9375 a 0.99834447,0.99834447 0 0 0 0,-1.4375 l -9.34375,-9.34375 a 0.99834447,0.99834447 0 0 0 -1.4375,0 l -10.9375,10.9375 -10.9375,-10.9375 a 0.99834447,0.99834447 0 0 0 -0.84375,-0.28125 z"
       id="path3730"
       style="display:inline;opacity:0.15;fill:#000000;fill-opacity:1;stroke:none" />
    <path
       d="m 134.17563,70.848078 9.33333,9.333333 11.66667,-11.666667 11.66667,11.666667 9.33333,-9.333333 -11.66667,-11.666667 11.66667,-11.666667 -9.33333,-9.333333 -11.66667,11.666667 -11.66667,-11.666667 -9.33333,9.333333 11.66667,11.666667 z"
       inkscape:connector-curvature="0"
       id="path3724"
       style="display:inline;opacity:0.3;fill:#000000;fill-opacity:1;stroke:none" />
    <path
       d="m 134.17563,69.848078 9.33333,9.333333 11.66667,-11.666667 11.66667,11.666667 9.33333,-9.333333 -11.66667,-11.666667 11.66667,-11.666667 -9.33333,-9.333333 -11.66667,11.666667 -11.66667,-11.666667 -9.33333,9.333333 11.66667,11.666667 z"
       inkscape:connector-curvature="0"
       id="path2929"
       style="display:inline;fill:url(#linearGradient3702);fill-opacity:1;stroke:none" />
    <path
       d="m 143.51938,37.181411 -9.34375,9.34375 0.5,0.5 8.84375,-8.84375 11.65625,11.65625 11.65625,-11.65625 8.84375,8.84375 0.5,-0.5 -9.34375,-9.34375 -11.65625,11.65625 z m 1.8125,21.5 -11.15625,11.15625 0.5,0.5 11.15625,-11.15625 z m 19.6875,0 -0.5,0.5 11.15625,11.15625 0.5,-0.5 z"
       inkscape:connector-curvature="0"
       id="path3704"
       style="display:inline;opacity:0.3;fill:#ffffff;fill-opacity:1;stroke:none" />
    <path
       d="m 134.67563,46.025161 -0.5,0.5 11.15625,11.15625 0.5,-0.5 z m 41,0 -11.15625,11.15625 0.5,0.5 11.15625,-11.15625 z m -20.5,20.5 -11.65625,11.65625 -8.84375,-8.84375 -0.5,0.5 9.34375,9.34375 11.65625,-11.65625 11.65625,11.65625 9.34375,-9.34375 -0.5,-0.5 -8.84375,8.84375 z"
       inkscape:connector-curvature="0"
       id="path3714"
       style="display:inline;opacity:0.1;fill:#000000;fill-opacity:1;stroke:none" />
  </g>
  <g
     aria-label="LSB"
     id="text10184-5-1-3"
     style="font-style:italic;font-weight:900;font-size:46.0188px;font-family:Lato;-inkscape-font-specification:'Lato, Heavy Italic';fill:none;stroke:#000000;stroke-width:8.27206;stroke-opacity:0.186659"
     transform="matrix(0.80414034,0,0,0.80414034,9.4263716,11.22747)">
    <path
       d="m 20.373749,57.467729 h 11.274606 l -0.736301,5.982443 h -18.77567 l 4.141692,-33.524695 h 7.501064 z"
       id="path15676" />
    <path
       d="m 55.30202,36.644222 q -0.414169,0.529216 -0.805329,0.805329 -0.391159,0.253103 -0.943385,0.253103 -0.529216,0 -1.058432,-0.345141 -0.529217,-0.345141 -1.196489,-0.75931 -0.644263,-0.414169 -1.495611,-0.75931 -0.851348,-0.345141 -2.001818,-0.345141 -1.058432,0 -1.863761,0.299122 -0.78232,0.299123 -1.311536,0.828339 -0.529216,0.529216 -0.805329,1.242507 -0.253103,0.713292 -0.253103,1.564639 0,0.920376 0.506206,1.54163 0.529217,0.621254 1.380564,1.104451 0.874358,0.460188 1.955799,0.851348 1.081442,0.39116 2.208903,0.851348 1.15047,0.460188 2.231911,1.058432 1.104452,0.598245 1.955799,1.495611 0.874357,0.897367 1.380564,2.162884 0.529216,1.265517 0.529216,3.037241 0,2.531033 -0.874357,4.762945 -0.874357,2.231912 -2.508024,3.911598 -1.633668,1.656677 -3.980626,2.646081 -2.32395,0.966395 -5.246143,0.966395 -1.449593,0 -2.922194,-0.322132 -1.449592,-0.322131 -2.807147,-0.897366 -1.334545,-0.598245 -2.485015,-1.403574 -1.15047,-0.805329 -1.955799,-1.794733 l 2.66909,-3.497429 q 0.322132,-0.391159 0.78232,-0.644263 0.483197,-0.253103 0.966395,-0.253103 0.644263,0 1.242507,0.460188 0.621254,0.437178 1.357555,0.989404 0.736301,0.529216 1.702695,0.989404 0.989405,0.437179 2.415987,0.437179 2.093856,0 3.221316,-1.127461 1.15047,-1.15047 1.15047,-3.382382 0,-1.035422 -0.529216,-1.702695 -0.506207,-0.667273 -1.357554,-1.127461 -0.828339,-0.460188 -1.909781,-0.805329 -1.081441,-0.36815 -2.208902,-0.782319 -1.127461,-0.414169 -2.208902,-0.966395 -1.081442,-0.575235 -1.93279,-1.472602 -0.828338,-0.920376 -1.357554,-2.231911 -0.506207,-1.334545 -0.506207,-3.267335 0,-2.231912 0.828338,-4.279748 0.851348,-2.070846 2.415987,-3.658495 1.564639,-1.587648 3.796551,-2.531034 2.231912,-0.943385 5.016049,-0.943385 1.426583,0 2.761128,0.299122 1.357555,0.299122 2.531034,0.828338 1.173479,0.529217 2.139874,1.265517 0.966395,0.713292 1.633667,1.56464 z"
       id="path15678" />
    <path
       d="m 58.730454,63.450172 4.141692,-33.524695 h 11.5047 q 2.922194,0 4.99304,0.552226 2.093855,0.552226 3.405391,1.587649 1.334545,1.012413 1.932789,2.462005 0.621254,1.426583 0.621254,3.175297 0,1.380564 -0.36815,2.669091 -0.345141,1.265517 -1.127461,2.346959 -0.75931,1.081441 -1.978808,1.978808 -1.219498,0.874357 -2.945203,1.472601 2.715109,0.736301 4.003635,2.30094 1.311536,1.54163 1.311536,3.911598 0,2.32395 -0.897367,4.348777 -0.874357,2.001818 -2.554043,3.497429 -1.679686,1.49561 -4.095673,2.369968 -2.392978,0.851347 -5.430218,0.851347 z m 9.249779,-14.311846 -1.058432,8.674544 h 4.924011 q 1.380564,0 2.323949,-0.39116 0.943386,-0.414169 1.518621,-1.127461 0.598244,-0.736301 0.851348,-1.702695 0.276112,-0.966395 0.276112,-2.116865 0,-0.75931 -0.207084,-1.380564 -0.184075,-0.621254 -0.667273,-1.035423 -0.460188,-0.437179 -1.242507,-0.667273 -0.759311,-0.253103 -1.886771,-0.253103 z m 0.598244,-4.97003 h 3.589467 q 1.265517,0 2.27793,-0.253104 1.012414,-0.253103 1.725705,-0.851347 0.736301,-0.621254 1.127461,-1.633668 0.391159,-1.012413 0.391159,-2.508024 0,-1.863762 -0.989404,-2.623072 -0.966394,-0.782319 -3.014231,-0.782319 H 69.63691 Z"
       id="path15680" />
  </g>
  <g
     aria-label="LSB"
     id="text10184-5-3-5"
     style="font-style:italic;font-weight:900;font-size:46.0188px;font-family:Lato;-inkscape-font-specification:'Lato, Heavy Italic';fill:none;stroke:#000000;stroke-width:5.51471;stroke-opacity:0.322209"
     transform="matrix(0.80414034,0,0,0.80414034,9.4263716,11.22747)">
    <path
       d="m 20.494606,57.28589 h 11.274606 l -0.736301,5.982443 h -18.77567 l 4.141692,-33.524695 h 7.501064 z"
       id="path15683" />
    <path
       d="m 55.422878,36.462383 q -0.41417,0.529216 -0.805329,0.805329 -0.39116,0.253103 -0.943386,0.253103 -0.529216,0 -1.058432,-0.345141 -0.529216,-0.34514 -1.196489,-0.75931 -0.644263,-0.414169 -1.495611,-0.75931 -0.851348,-0.345141 -2.001818,-0.345141 -1.058432,0 -1.863761,0.299122 -0.78232,0.299123 -1.311536,0.828339 -0.529216,0.529216 -0.805329,1.242507 -0.253103,0.713292 -0.253103,1.564639 0,0.920376 0.506207,1.54163 0.529216,0.621254 1.380564,1.104451 0.874357,0.460188 1.955799,0.851348 1.081441,0.39116 2.208902,0.851348 1.15047,0.460188 2.231912,1.058432 1.104451,0.598245 1.955799,1.495611 0.874357,0.897367 1.380564,2.162884 0.529216,1.265517 0.529216,3.037241 0,2.531033 -0.874357,4.762945 -0.874358,2.231912 -2.508025,3.911598 -1.633667,1.656677 -3.980626,2.646081 -2.323949,0.966395 -5.246143,0.966395 -1.449592,0 -2.922194,-0.322132 Q 38.85611,62.992221 37.498555,62.416986 36.16401,61.818741 35.01354,61.013412 33.86307,60.208083 33.057741,59.218679 l 2.669091,-3.497429 q 0.322131,-0.391159 0.782319,-0.644263 0.483198,-0.253103 0.966395,-0.253103 0.644263,0 1.242508,0.460188 0.621253,0.437178 1.357554,0.989404 0.736301,0.529216 1.702696,0.989404 0.989404,0.437179 2.415987,0.437179 2.093855,0 3.221316,-1.127461 1.150469,-1.15047 1.150469,-3.382382 0,-1.035422 -0.529216,-1.702695 -0.506206,-0.667273 -1.357554,-1.127461 -0.828339,-0.460188 -1.90978,-0.805329 -1.081442,-0.36815 -2.208903,-0.782319 -1.12746,-0.414169 -2.208902,-0.966395 -1.081442,-0.575235 -1.93279,-1.472602 -0.828338,-0.920376 -1.357554,-2.231911 -0.506207,-1.334545 -0.506207,-3.267335 0,-2.231912 0.828338,-4.279748 0.851348,-2.070846 2.415987,-3.658495 1.564639,-1.587648 3.796551,-2.531034 2.231912,-0.943385 5.016049,-0.943385 1.426583,0 2.761128,0.299122 1.357555,0.299122 2.531034,0.828338 1.17348,0.529217 2.139874,1.265517 0.966395,0.713292 1.633668,1.56464 z"
       id="path15685" />
    <path
       d="m 58.851312,63.268333 4.141692,-33.524695 h 11.504699 q 2.922194,0 4.99304,0.552226 2.093855,0.552226 3.405391,1.587649 1.334545,1.012413 1.93279,2.462005 0.621253,1.426583 0.621253,3.175297 0,1.380564 -0.36815,2.669091 -0.345141,1.265517 -1.127461,2.346959 -0.75931,1.081441 -1.978808,1.978808 -1.219498,0.874357 -2.945203,1.472601 2.715109,0.736301 4.003635,2.30094 1.311536,1.54163 1.311536,3.911598 0,2.32395 -0.897366,4.348777 -0.874358,2.001818 -2.554044,3.497429 -1.679686,1.49561 -4.095673,2.369968 -2.392977,0.851347 -5.430218,0.851347 z m 9.249778,-14.311846 -1.058432,8.674544 h 4.924011 q 1.380564,0 2.32395,-0.39116 0.943385,-0.414169 1.51862,-1.127461 0.598244,-0.736301 0.851348,-1.702695 0.276113,-0.966395 0.276113,-2.116865 0,-0.75931 -0.207085,-1.380564 -0.184075,-0.621254 -0.667273,-1.035423 -0.460188,-0.437179 -1.242507,-0.667273 -0.75931,-0.253103 -1.886771,-0.253103 z m 0.598245,-4.97003 h 3.589466 q 1.265517,0 2.27793,-0.253104 1.012414,-0.253103 1.725705,-0.851347 0.736301,-0.621254 1.127461,-1.633668 0.39116,-1.012413 0.39116,-2.508024 0,-1.863762 -0.989404,-2.623072 -0.966395,-0.782319 -3.014232,-0.782319 h -4.049654 z"
       id="path15687" />
  </g>
  <g
     aria-label="LSB"
     id="text10184-5-6"
     style="font-style:italic;font-weight:900;font-size:46.0188px;font-family:Lato;-inkscape-font-specification:'Lato, Heavy Italic';fill:none;stroke:#000000;stroke-width:2.75735;stroke-opacity:0.506045"
     transform="matrix(0.80414034,0,0,0.80414034,9.4263716,11.22747)">
    <path
       d="m 20.581036,57.464044 h 11.274605 l -0.7363,5.982443 h -18.77567 l 4.141692,-33.524695 h 7.501064 z"
       id="path15690" />
    <path
       d="m 55.509307,36.640537 q -0.414169,0.529216 -0.805329,0.805329 -0.39116,0.253103 -0.943385,0.253103 -0.529216,0 -1.058433,-0.345141 -0.529216,-0.345141 -1.196488,-0.75931 -0.644264,-0.414169 -1.495611,-0.75931 -0.851348,-0.345141 -2.001818,-0.345141 -1.058432,0 -1.863761,0.299122 -0.78232,0.299123 -1.311536,0.828339 -0.529216,0.529216 -0.805329,1.242507 -0.253104,0.713292 -0.253104,1.564639 0,0.920376 0.506207,1.54163 0.529216,0.621254 1.380564,1.104451 0.874357,0.460188 1.955799,0.851348 1.081442,0.39116 2.208902,0.851348 1.15047,0.460188 2.231912,1.058432 1.104451,0.598245 1.955799,1.495611 0.874357,0.897367 1.380564,2.162884 0.529216,1.265517 0.529216,3.037241 0,2.531033 -0.874357,4.762945 -0.874357,2.231912 -2.508024,3.911598 -1.633668,1.656677 -3.980627,2.646081 -2.323949,0.966395 -5.246143,0.966395 -1.449592,0 -2.922193,-0.322132 Q 38.94254,63.170375 37.584985,62.59514 36.25044,61.996895 35.09997,61.191566 33.9495,60.386237 33.144171,59.396833 l 2.66909,-3.497429 q 0.322132,-0.391159 0.78232,-0.644263 0.483197,-0.253103 0.966395,-0.253103 0.644263,0 1.242507,0.460188 0.621254,0.437178 1.357555,0.989404 0.7363,0.529216 1.702695,0.989404 0.989404,0.437179 2.415987,0.437179 2.093856,0 3.221316,-1.127461 1.15047,-1.15047 1.15047,-3.382382 0,-1.035422 -0.529216,-1.702695 -0.506207,-0.667273 -1.357555,-1.127461 -0.828338,-0.460188 -1.90978,-0.805329 -1.081442,-0.36815 -2.208902,-0.782319 Q 41.519592,48.536397 40.43815,47.984171 39.356709,47.408936 38.505361,46.511569 37.677023,45.591193 37.147806,44.279658 36.6416,42.945113 36.6416,41.012323 q 0,-2.231912 0.828338,-4.279748 0.851348,-2.070846 2.415987,-3.658495 1.564639,-1.587648 3.796551,-2.531034 2.231912,-0.943385 5.016049,-0.943385 1.426583,0 2.761128,0.299122 1.357554,0.299122 2.531034,0.828338 1.173479,0.529217 2.139874,1.265517 0.966395,0.713292 1.633667,1.56464 z"
       id="path15692" />
    <path
       d="m 58.937741,63.446487 4.141692,-33.524695 h 11.5047 q 2.922194,0 4.993039,0.552226 2.093856,0.552226 3.405392,1.587649 1.334545,1.012413 1.932789,2.462005 0.621254,1.426583 0.621254,3.175297 0,1.380564 -0.36815,2.669091 -0.345141,1.265517 -1.127461,2.346959 -0.75931,1.081441 -1.978808,1.978808 -1.219499,0.874357 -2.945204,1.472601 2.71511,0.736301 4.003636,2.30094 1.311536,1.54163 1.311536,3.911598 0,2.32395 -0.897367,4.348777 -0.874357,2.001818 -2.554043,3.497429 -1.679686,1.49561 -4.095673,2.369968 -2.392978,0.851347 -5.430219,0.851347 z m 9.249779,-14.311846 -1.058433,8.674544 h 4.924012 q 1.380564,0 2.323949,-0.39116 0.943386,-0.414169 1.518621,-1.127461 0.598244,-0.736301 0.851347,-1.702695 0.276113,-0.966395 0.276113,-2.116865 0,-0.75931 -0.207084,-1.380564 -0.184076,-0.621254 -0.667273,-1.035423 -0.460188,-0.437179 -1.242508,-0.667273 -0.75931,-0.253103 -1.88677,-0.253103 z m 0.598244,-4.97003 h 3.589466 q 1.265517,0 2.277931,-0.253104 1.012414,-0.253103 1.725705,-0.851347 0.736301,-0.621254 1.127461,-1.633668 0.391159,-1.012413 0.391159,-2.508024 0,-1.863762 -0.989404,-2.623072 -0.966395,-0.782319 -3.014231,-0.782319 h -4.049654 z"
       id="path15694" />
  </g>
  <g
     aria-label="LSB"
     id="text10184-0-2"
     style="font-style:italic;font-weight:900;font-size:46.0188px;font-family:Lato;-inkscape-font-specification:'Lato, Heavy Italic';fill:none;stroke:url(#linearGradient15662-3);stroke-width:1.37868;stroke-opacity:0.186659"
     transform="matrix(0.80414034,0,0,0.80414034,9.4263716,11.22747)">
    <path
       d="M 20.371844,56.90873 H 31.64645 l -0.736301,5.982444 h -18.77567 l 4.141692,-33.524695 h 7.501065 z"
       id="path15697"
       style="stroke:url(#linearGradient1846)" />
    <path
       d="m 55.300116,36.085224 q -0.414169,0.529216 -0.805329,0.805329 -0.39116,0.253103 -0.943386,0.253103 -0.529216,0 -1.058432,-0.345141 -0.529216,-0.345141 -1.196489,-0.75931 -0.644263,-0.414169 -1.495611,-0.75931 -0.851347,-0.345141 -2.001817,-0.345141 -1.058433,0 -1.863762,0.299122 -0.782319,0.299122 -1.311536,0.828339 -0.529216,0.529216 -0.805329,1.242507 -0.253103,0.713292 -0.253103,1.564639 0,0.920376 0.506207,1.54163 0.529216,0.621254 1.380564,1.104451 0.874357,0.460188 1.955799,0.851348 1.081442,0.39116 2.208902,0.851348 1.15047,0.460188 2.231912,1.058432 1.104451,0.598245 1.955799,1.495611 0.874357,0.897367 1.380564,2.162884 0.529216,1.265517 0.529216,3.03724 0,2.531034 -0.874357,4.762946 -0.874357,2.231912 -2.508025,3.911598 -1.633667,1.656677 -3.980626,2.646081 -2.323949,0.966395 -5.246143,0.966395 -1.449592,0 -2.922194,-0.322132 -1.449592,-0.322131 -2.807146,-0.897366 -1.334546,-0.598245 -2.485015,-1.403574 -1.15047,-0.805329 -1.955799,-1.794733 l 2.66909,-3.497429 q 0.322131,-0.391159 0.782319,-0.644263 0.483198,-0.253103 0.966395,-0.253103 0.644263,0 1.242508,0.460188 0.621254,0.437178 1.357554,0.989404 0.736301,0.529216 1.702696,0.989404 0.989404,0.437179 2.415987,0.437179 2.093855,0 3.221316,-1.127461 1.15047,-1.15047 1.15047,-3.382382 0,-1.035423 -0.529216,-1.702695 -0.506207,-0.667273 -1.357555,-1.127461 -0.828338,-0.460188 -1.90978,-0.805329 -1.081442,-0.36815 -2.208902,-0.782319 -1.127461,-0.41417 -2.208903,-0.966395 -1.081442,-0.575235 -1.932789,-1.472602 -0.828339,-0.920376 -1.357555,-2.231911 -0.506207,-1.334546 -0.506207,-3.267335 0,-2.231912 0.828339,-4.279748 0.851347,-2.070846 2.415987,-3.658495 1.564639,-1.587648 3.79655,-2.531034 2.231912,-0.943385 5.01605,-0.943385 1.426582,0 2.761127,0.299122 1.357555,0.299122 2.531034,0.828338 1.17348,0.529217 2.139875,1.265517 0.966394,0.713292 1.633667,1.564639 z"
       id="path15699"
       style="stroke:url(#linearGradient1848)" />
    <path
       d="m 58.72855,62.891174 4.141692,-33.524695 h 11.504699 q 2.922194,0 4.99304,0.552226 2.093856,0.552226 3.405391,1.587649 1.334545,1.012413 1.93279,2.462005 0.621254,1.426583 0.621254,3.175297 0,1.380564 -0.368151,2.669091 -0.345141,1.265517 -1.12746,2.346958 -0.759311,1.081442 -1.978809,1.978809 -1.219498,0.874357 -2.945203,1.472601 2.715109,0.736301 4.003636,2.30094 1.311535,1.54163 1.311535,3.911598 0,2.32395 -0.897366,4.348777 -0.874357,2.001817 -2.554043,3.497428 -1.679687,1.495611 -4.095674,2.369969 -2.392977,0.851347 -5.430218,0.851347 z m 9.249778,-14.311846 -1.058432,8.674543 h 4.924012 q 1.380564,0 2.323949,-0.391159 0.943385,-0.41417 1.51862,-1.127461 0.598245,-0.736301 0.851348,-1.702695 0.276113,-0.966395 0.276113,-2.116865 0,-0.75931 -0.207085,-1.380564 -0.184075,-0.621254 -0.667272,-1.035423 -0.460188,-0.437179 -1.242508,-0.667273 -0.75931,-0.253103 -1.886771,-0.253103 z m 0.598245,-4.97003 h 3.589466 q 1.265517,0 2.277931,-0.253104 1.012413,-0.253103 1.725705,-0.851348 0.7363,-0.621253 1.12746,-1.633667 0.39116,-1.012413 0.39116,-2.508024 0,-1.863762 -0.989404,-2.623072 -0.966395,-0.78232 -3.014231,-0.78232 h -4.049655 z"
       id="path15701"
       style="stroke:url(#linearGradient1850)" />
  </g>
  <g
     aria-label="LSB"
     id="text10184-9"
     style="font-style:italic;font-weight:900;font-size:46.0188px;font-family:Lato;-inkscape-font-specification:'Lato, Heavy Italic';fill:url(#linearGradient5456);stroke-width:4.07647;stroke-opacity:0.322186;fill-opacity:1"
     transform="matrix(0.80414034,0,0,0.80414034,9.4263716,11.22747)">
    <path
       d="m 20.668508,57.756387 h 11.274605 l -0.7363,5.982444 h -18.77567 l 4.141692,-33.524695 h 7.501064 z"
       id="path15704"
       style="fill-opacity:1;fill:url(#linearGradient5456)" />
    <path
       d="m 55.596779,36.93288 q -0.414169,0.529216 -0.805329,0.805329 -0.39116,0.253104 -0.943385,0.253104 -0.529216,0 -1.058433,-0.345141 -0.529216,-0.345141 -1.196488,-0.759311 -0.644264,-0.414169 -1.495611,-0.75931 -0.851348,-0.345141 -2.001818,-0.345141 -1.058433,0 -1.863761,0.299122 -0.78232,0.299123 -1.311536,0.828339 -0.529216,0.529216 -0.805329,1.242507 -0.253104,0.713292 -0.253104,1.56464 0,0.920376 0.506207,1.541629 0.529216,0.621254 1.380564,1.104452 0.874357,0.460187 1.955799,0.851347 1.081442,0.39116 2.208902,0.851348 1.15047,0.460188 2.231912,1.058432 1.104451,0.598245 1.955799,1.495611 0.874357,0.897367 1.380564,2.162884 0.529216,1.265517 0.529216,3.037241 0,2.531034 -0.874357,4.762945 -0.874357,2.231912 -2.508024,3.911598 -1.633668,1.656677 -3.980627,2.646081 -2.323949,0.966395 -5.246143,0.966395 -1.449592,0 -2.922193,-0.322132 -1.449593,-0.322131 -2.807147,-0.897366 -1.334545,-0.598245 -2.485015,-1.403574 -1.15047,-0.805329 -1.955799,-1.794733 l 2.66909,-3.497428 q 0.322132,-0.39116 0.78232,-0.644264 0.483197,-0.253103 0.966395,-0.253103 0.644263,0 1.242507,0.460188 0.621254,0.437179 1.357555,0.989404 0.7363,0.529216 1.702695,0.989404 0.989404,0.437179 2.415987,0.437179 2.093856,0 3.221316,-1.127461 1.15047,-1.15047 1.15047,-3.382381 0,-1.035423 -0.529216,-1.702696 -0.506207,-0.667273 -1.357555,-1.127461 -0.828338,-0.460187 -1.90978,-0.805328 -1.081442,-0.368151 -2.208902,-0.78232 -1.127461,-0.414169 -2.208903,-0.966395 -1.081441,-0.575235 -1.932789,-1.472601 -0.828338,-0.920376 -1.357555,-2.231912 -0.506206,-1.334545 -0.506206,-3.267335 0,-2.231912 0.828338,-4.279748 0.851348,-2.070846 2.415987,-3.658495 1.564639,-1.587648 3.796551,-2.531034 2.231912,-0.943385 5.016049,-0.943385 1.426583,0 2.761128,0.299122 1.357554,0.299122 2.531034,0.828339 1.173479,0.529216 2.139874,1.265517 0.966395,0.713291 1.633667,1.564639 z"
       id="path15706"
       style="fill-opacity:1;fill:url(#linearGradient5456)" />
    <path
       d="m 59.025213,63.738831 4.141692,-33.524695 h 11.5047 q 2.922194,0 4.993039,0.552225 2.093856,0.552226 3.405392,1.587649 1.334545,1.012413 1.932789,2.462006 0.621254,1.426582 0.621254,3.175297 0,1.380564 -0.36815,2.66909 -0.345141,1.265517 -1.127461,2.346959 -0.75931,1.081441 -1.978808,1.978808 -1.219499,0.874357 -2.945204,1.472602 2.71511,0.7363 4.003636,2.30094 1.311536,1.541629 1.311536,3.911597 0,2.32395 -0.897367,4.348777 -0.874357,2.001818 -2.554043,3.497429 -1.679686,1.495611 -4.095673,2.369968 -2.392978,0.851348 -5.430219,0.851348 z m 9.249779,-14.311847 -1.058433,8.674544 h 4.924012 q 1.380564,0 2.323949,-0.39116 0.943386,-0.414169 1.518621,-1.127461 0.598244,-0.7363 0.851347,-1.702695 0.276113,-0.966395 0.276113,-2.116865 0,-0.75931 -0.207084,-1.380564 -0.184076,-0.621254 -0.667273,-1.035423 -0.460188,-0.437178 -1.242508,-0.667272 -0.75931,-0.253104 -1.88677,-0.253104 z m 0.598244,-4.97003 h 3.589466 q 1.265517,0 2.277931,-0.253104 1.012414,-0.253103 1.725705,-0.851347 0.736301,-0.621254 1.127461,-1.633668 0.391159,-1.012413 0.391159,-2.508024 0,-1.863762 -0.989404,-2.623072 -0.966395,-0.782319 -3.014231,-0.782319 h -4.049655 z"
       id="path15708"
       style="fill-opacity:1;fill:url(#linearGradient5456)" />
  </g>
</svg>
