<?xml version="1.0" encoding="UTF-8" standalone="no"?>
<!-- Created with Inkscape (http://www.inkscape.org/) -->

<svg
   width="45.757mm"
   height="45.757mm"
   viewBox="0 0 45.757 45.757"
   version="1.1"
   id="svg651"
   inkscape:version="1.2.2 (b0a8486541, 2022-12-01)"
   sodipodi:docname="rms-inspector.svg"
   xmlns:inkscape="http://www.inkscape.org/namespaces/inkscape"
   xmlns:sodipodi="http://sodipodi.sourceforge.net/DTD/sodipodi-0.dtd"
   xmlns="http://www.w3.org/2000/svg"
   xmlns:svg="http://www.w3.org/2000/svg">
  <sodipodi:namedview
     id="namedview653"
     pagecolor="#ffffff"
     bordercolor="#000000"
     borderopacity="0.25"
     inkscape:showpageshadow="2"
     inkscape:pageopacity="0.0"
     inkscape:pagecheckerboard="0"
     inkscape:deskcolor="#d1d1d1"
     inkscape:document-units="mm"
     showgrid="false"
     inkscape:zoom="3.0565749"
     inkscape:cx="157.36568"
     inkscape:cy="131.68334"
     inkscape:window-width="1920"
     inkscape:window-height="1028"
     inkscape:window-x="0"
     inkscape:window-y="25"
     inkscape:window-maximized="1"
     inkscape:current-layer="layer1" />
  <defs
     id="defs648">
    <clipPath
       clipPathUnits="userSpaceOnUse"
       id="clipPath3863">
      <rect
         style="opacity:1;fill:none;fill-opacity:1;fill-rule:nonzero;stroke:#00ffff;stroke-width:1;stroke-linecap:round;stroke-linejoin:round;stroke-miterlimit:4;stroke-dasharray:none;stroke-dashoffset:0;stroke-opacity:1"
         id="rect3865"
         width="172.94109"
         height="162.33046"
         x="240.88274"
         y="547.76447"
         rx="23.798607"
         ry="23.798607" />
    </clipPath>
    <filter
       inkscape:collect="always"
       id="filter3872"
       x="-0.034869162"
       y="-0.037206644"
       width="1.0697383"
       height="1.0744133">
      <feGaussianBlur
         inkscape:collect="always"
         stdDeviation="2.4499219"
         id="feGaussianBlur3874" />
    </filter>
    <clipPath
       id="chart0-0-3">
      <rect
         x="-6.5"
         y="-1.5"
         width="13"
         height="3"
         id="rect4303-6" />
    </clipPath>
  </defs>
  <g
     inkscape:label="Layer 1"
     inkscape:groupmode="layer"
     id="layer1">
    <rect
       style="fill:#161716;fill-opacity:1;fill-rule:nonzero;stroke:none;stroke-width:0.264583;stroke-linecap:round;stroke-linejoin:round;stroke-miterlimit:4;stroke-dasharray:none;stroke-dashoffset:0;stroke-opacity:1"
       id="rect3175"
       width="45.757328"
       height="42.949932"
       x="0"
       y="1.4035358"
       rx="6.2967148"
       ry="6.2967148" />
    <path
       id="path3807"
       d="m 264.6875,549.90625 c -12.02137,0 -21.65625,9.6349 -21.65625,21.65625 v 114.71875 c 0,12.02137 9.63489,21.65627 21.65625,21.65625 h 125.34375 c 12.02137,0 21.625,-9.63147 21.625,-21.65625 V 571.5625 c 0,-12.02479 -9.60362,-21.65625 -21.625,-21.65625 z"
       clip-path="url(#clipPath3863)"
       style="fill:#2f2f2f;fill-opacity:1;fill-rule:nonzero;stroke:none;stroke-width:1;stroke-linecap:round;stroke-linejoin:round;stroke-miterlimit:4;stroke-dashoffset:0;stroke-opacity:1;filter:url(#filter3872)"
       transform="matrix(0.26458333,0,0,0.26458333,-63.733554,-143.52581)" />
    <rect
       ry="5.7462945"
       rx="5.7462945"
       y="3.1967945"
       x="1.8853303"
       height="39.195515"
       width="41.757504"
       id="rect3173"
       style="fill:#000000;fill-opacity:1;fill-rule:nonzero;stroke:none;stroke-width:0.264583;stroke-linecap:round;stroke-linejoin:round;stroke-miterlimit:4;stroke-dasharray:none;stroke-dashoffset:0;stroke-opacity:1" />
    <rect
       style="fill:none;fill-opacity:1;fill-rule:nonzero;stroke:#42dc88;stroke-width:2;stroke-linecap:round;stroke-linejoin:round;stroke-miterlimit:4;stroke-dasharray:none;stroke-dashoffset:0;stroke-opacity:1"
       id="rect3798"
       width="41.757504"
       height="39.195515"
       x="1.9999162"
       y="3.2807484"
       rx="5.7462945"
       ry="5.7462945" />
    <path
       class="st0"
       d="m 8.1750956,18.313806 3.88e-4,0.0011 v 0 l 0.004,0.01463 0.33256,-0.08748 c 3.8247214,-1.004677 8.9185994,-1.557605 14.3432654,-1.557605 5.424665,0 10.518169,0.553023 14.343269,1.557696 l 0.33256,0.08748 0.23967,-0.914027 -0.33256,-0.08748 c -0.81023,-0.212816 -1.68704,-0.400731 -2.59921,-0.572699 l 0.34385,-1.864426 7e-4,-0.005 v 0 l 0.003,-0.01502 -0.92643,-0.16833 -0.004,-7.05e-4 v 0 l -0.0146,-0.0025 -0.33843,1.887743 c -0.62008,-0.103797 -1.25974,-0.197801 -1.91469,-0.28304 l 0.23818,-1.889981 3.5e-4,-0.0043 v 0 l 0.002,-0.01463 -0.93296,-0.115079 -0.003,-2.82e-4 v 0 l -0.0149,-0.0018 -0.23352,1.908538 c -0.63173,-0.07181 -1.2754,-0.135878 -1.93185,-0.190526 l 0.15229,-1.90453 v 0 0 l 10e-4,-0.01491 -0.939493,-0.0733 h -7.05e-4 v 0 l -0.01491,-0.0011 -0.147162,1.924206 c -0.63854,-0.04486 -1.285195,-0.08123 -1.941268,-0.109302 l 0.07834,-1.900142 7.05e-4,-0.01491 v 0 l 7.05e-4,-0.0153 -0.942842,-0.03497 h -0.0032 v 0 l -0.01502,-3.52e-4 -0.06845,1.92896 c -0.642178,-0.01967 -1.291354,-0.03095 -1.945654,-0.03496 l 0.0054,-1.905274 v -0.011 0 -0.0153 H 22.37154 l 0.0054,1.931851 c -0.654304,0.004 -1.303475,0.01491 -1.945654,0.03461 l -0.06845,-1.928961 -0.958513,0.03572 0.07656,1.93036 c -0.656073,0.02844 -1.302727,0.06481 -1.940989,0.109298 l -0.143152,-1.902662 -7.4e-4,-0.0065 v 0 l -10e-4,-0.01491 -0.928297,0.07181 -0.01352,7.05e-4 v 3.52e-4 l -0.01492,0.0011 0.153037,1.920194 c -0.656447,0.05465 -1.300211,0.118812 -1.931478,0.1909 l -0.2338,-1.909282 -0.932306,0.1162 -0.0035,7.05e-4 v 0 l -0.01502,0.0018 0.240794,1.9077 c -0.655328,0.08524 -1.294989,0.179243 -1.915066,0.283413 l -0.338062,-1.887742 -0.922701,0.167587 -0.0073,0.0014 v 0 l -0.01455,0.0025 0.346735,1.884475 C 9.9554041,16.928398 9.0807316,17.11566 8.2719936,17.328103 l -0.316147,0.083 -0.0022,3.52e-4 3.88e-4,3.53e-4 -0.01464,0.0036 z"
       id="path16352"
       style="fill:#42dc88;fill-opacity:1;stroke:#42dc88;stroke-width:0.793;stroke-opacity:1;stroke-dasharray:none" />
    <polygon
       class="st0"
       points="416.676,205.525 416.676,215.252 429.508,215.252 429.508,228.006 439.23,228.006 439.23,215.252 451.981,215.252 451.981,205.525 439.23,205.525 439.23,192.776 429.508,192.776 429.508,205.525 "
       id="polygon16358"
       style="fill:#42dc88;fill-opacity:0.52063805;stroke:none;stroke-opacity:1"
       transform="matrix(0.0932586,0,0,0.0932586,-1.0188965,-5.6137417)" />
    <polygon
       class="st0"
       points="84.718,199.193 57.718,199.193 57.718,209.803 84.718,209.803 84.718,199.388 84.718,199.357 "
       id="polygon16360"
       style="fill:#42dc88;fill-opacity:0.52063805;stroke:none;stroke-opacity:1"
       transform="matrix(0.0932586,0,0,0.0932586,-1.0188965,-5.6137417)" />
    <path
       class="st0"
       d="m 29.997608,11.44363 c 0.0845,0.0761 0.18186,0.134109 0.29153,0.173367 0.10995,0.03936 0.22699,0.05904 0.35121,0.05904 0.12096,0 0.23706,-0.01967 0.34823,-0.05904 0.11144,-0.03935 0.20871,-0.09727 0.2918,-0.173367 0.0834,-0.07619 0.1494,-0.169823 0.19855,-0.281268 0.0495,-0.111072 0.0739,-0.238928 0.0739,-0.382547 V 9.5120563 c 0,-0.143897 -0.0244,-0.271006 -0.0739,-0.382546 -0.0491,-0.111442 -0.11508,-0.205076 -0.19855,-0.280802 -0.083,-0.07656 -0.18036,-0.133732 -0.2918,-0.173459 -0.11117,-0.03973 -0.22737,-0.05941 -0.34823,-0.05941 -0.12422,0 -0.24117,0.01967 -0.35121,0.05941 -0.10967,0.03973 -0.20694,0.0969 -0.29153,0.173459 -0.0845,0.07573 -0.15154,0.16936 -0.20069,0.280802 -0.0491,0.111445 -0.074,0.238558 -0.074,0.382546 v 1.2677587 c 0,0.143524 0.0248,0.271384 0.074,0.382547 0.0491,0.111537 0.1162,0.205168 0.20069,0.281268 z m 0.64265,-2.3329557 c 0.10958,0 0.1978,0.03646 0.26373,0.109672 0.0663,0.07321 0.0994,0.173367 0.0994,0.300106 v 1.2550737 c 0,0.127112 -0.0331,0.226619 -0.0994,0.29796 -0.0659,0.07218 -0.15415,0.107807 -0.26373,0.107807 -0.11042,0 -0.19892,-0.03562 -0.26673,-0.107807 -0.0673,-0.07144 -0.10127,-0.170848 -0.10127,-0.29796 V 9.5204523 c 0,-0.126739 0.0338,-0.226993 0.10127,-0.300106 0.0678,-0.07312 0.15631,-0.109672 0.26673,-0.109672 z"
       id="path16362"
       style="fill:#42dc88;fill-opacity:0.52063805;stroke:none;stroke-width:0.0932585;stroke-opacity:1" />
    <path
       class="st0"
       d="m 11.450804,9.8873313 -1.127497,1.3096297 v 0.479816 l -3.88e-4,0.0014 h 3.88e-4 v 0.01463 h 1.83533 V 11.19695 h -0.710724 l -0.447082,-0.0091 0.835411,-0.970074 c 0.05055,-0.05941 0.09689,-0.114709 0.137649,-0.167213 0.04085,-0.05204 0.07507,-0.1052907 0.101652,-0.1588207 0.02695,-0.0539 0.04728,-0.109672 0.06155,-0.167584 0.01418,-0.05791 0.02145,-0.123475 0.02145,-0.197149 0,-0.135505 -0.02294,-0.257954 -0.06808,-0.366505 -0.04523,-0.108555 -0.10818,-0.200695 -0.188662,-0.275395 -0.08058,-0.07507 -0.177378,-0.132988 -0.290407,-0.174115 -0.112936,-0.04084 -0.236038,-0.06118 -0.368651,-0.06118 -0.130096,0 -0.25068,0.0196 -0.362497,0.05931 -0.111444,0.03973 -0.209085,0.09727 -0.292179,0.173836 -0.08375,0.0761 -0.148281,0.168983 -0.19491,0.277538 -0.03786,0.08785 -0.04915,0.192299 -0.05652,0.299451 -0.0029,0.01967 -0.01129,0.03712 -0.01389,0.05652 h 0.003 c 0,0.0054 -0.0026,0.0095 -0.0026,0.01491 h 0.534372 0.0015 v 0 h 0.01492 c 0,-0.07358 0.01063,-0.134849 0.03171,-0.184372 0.02108,-0.04952 0.04952,-0.08925 0.08487,-0.118812 0.03525,-0.02985 0.0747,-0.05092 0.118439,-0.06369 0.04402,-0.01276 0.0885,-0.01893 0.133733,-0.01893 0.118438,0 0.209459,0.03461 0.271009,0.103892 0.0623,0.0692 0.09363,0.160216 0.09363,0.273621 0,0.07069 -0.01203,0.132611 -0.036,0.186141 -0.02397,0.0539 -0.06435,0.11331 -0.12049,0.178126 z"
       id="path16364"
       style="fill:#42dc88;fill-opacity:0.52063805;stroke:none;stroke-width:0.0932585;stroke-opacity:1" />
    <path
       class="st0"
       d="m 12.88279,11.48513 c 0.08486,0.07657 0.182134,0.134479 0.292552,0.174115 0.110045,0.03936 0.227364,0.05903 0.351958,0.05903 0.121702,0 0.237809,-0.0196 0.34972,-0.05903 0.111444,-0.03973 0.209085,-0.09755 0.292179,-0.174115 0.08337,-0.0761 0.149773,-0.170105 0.199294,-0.281546 0.04952,-0.111819 0.07433,-0.239675 0.07433,-0.383946 V 9.5485233 c 0,-0.144179 -0.02481,-0.27213 -0.07433,-0.383945 -0.04952,-0.111446 -0.115828,-0.20545 -0.199294,-0.281549 -0.083,-0.07657 -0.180735,-0.134106 -0.292179,-0.173833 -0.111817,-0.03973 -0.228018,-0.05931 -0.34972,-0.05931 -0.124594,0 -0.241913,0.0196 -0.351958,0.05931 -0.110418,0.03973 -0.207594,0.09727 -0.292552,0.173833 -0.08449,0.0761 -0.151919,0.170103 -0.201066,0.281549 -0.04952,0.111815 -0.07433,0.239674 -0.07433,0.383945 v 1.2711147 c 0,0.144176 0.02481,0.272127 0.07433,0.383946 0.04924,0.111441 0.116573,0.205447 0.201066,0.281546 z M 13.5273,9.1457383 c 0.109952,0 0.198175,0.03674 0.264854,0.110046 0.06621,0.07358 0.09979,0.174114 0.09979,0.300853 v 1.2589897 c 0,0.127112 -0.03348,0.226619 -0.09979,0.298707 -0.06668,0.07218 -0.154902,0.108181 -0.264854,0.108181 -0.110418,0 -0.199294,-0.036 -0.267372,-0.108181 -0.06743,-0.07218 -0.101652,-0.171595 -0.101652,-0.298707 V 9.5566373 c 0,-0.126739 0.03422,-0.227366 0.101652,-0.300853 0.06808,-0.0733 0.156954,-0.110046 0.267372,-0.110046 z"
       id="path16366"
       style="fill:#42dc88;fill-opacity:0.52063805;stroke:none;stroke-width:0.0932585;stroke-opacity:1" />
    <path
       class="st0"
       d="m 17.663785,10.824766 c 0.300479,0 0.544256,-0.243404 0.544256,-0.543884 0,-0.3004797 -0.243777,-0.5438837 -0.544256,-0.5438837 -0.300106,0 -0.543884,0.243404 -0.543884,0.5438837 0,0.30048 0.243778,0.543884 0.543884,0.543884 z"
       id="path16370"
       style="fill:#42dc88;fill-opacity:0.52063805;stroke:none;stroke-width:0.0932585;stroke-opacity:1" />
    <path
       class="st0"
       d="m 21.966459,10.824766 c 0.300477,0 0.544254,-0.243404 0.544254,-0.543884 0,-0.3004797 -0.243777,-0.5438837 -0.544254,-0.5438837 -0.300106,0 -0.543884,0.243404 -0.543884,0.5438837 0,0.30048 0.243682,0.543884 0.543884,0.543884 z"
       id="path16372"
       style="fill:#42dc88;fill-opacity:0.52063805;stroke:none;stroke-width:0.0932585;stroke-opacity:1" />
    <circle
       class="st0"
       cx="26.269501"
       cy="10.280878"
       id="circle16374"
       style="fill:#42dc88;fill-opacity:0.52063805;stroke:none;stroke-width:0.0932585;stroke-opacity:1"
       r="0.54388416" />
    <circle
       class="st0"
       cx="34.874756"
       cy="10.280878"
       id="circle16376"
       style="fill:#42dc88;fill-opacity:0.52063805;stroke:none;stroke-width:0.0932585;stroke-opacity:1"
       r="0.54388416" />
    <g
       id="g19133"
       style="fill:#b17000;fill-opacity:1;stroke:#ff0000;stroke-opacity:1"
       transform="matrix(-1.0155414,0,0,0.32379491,119.06109,-13.099609)">
      <path
         style="fill:#b17000;fill-opacity:1;stroke:#ff0000;stroke-width:1;stroke-linecap:round;stroke-dasharray:none;stroke-opacity:1"
         d="m 84.073007,100.02378 10.154697,17.33443"
         id="path18729" />
      <path
         style="fill:#b17000;fill-opacity:1;stroke:#ff0000;stroke-width:0.983655;stroke-linecap:round;stroke-dasharray:none;stroke-opacity:1"
         d="m 84.133967,100.25628 10.914037,17.14055"
         id="path18729-7"
         sodipodi:nodetypes="cc" />
      <path
         style="fill:#b17000;fill-opacity:1;stroke:#ff0000;stroke-width:1.00459;stroke-linecap:round;stroke-dasharray:none;stroke-opacity:1"
         d="m 84.060281,100.11976 9.296163,17.2421"
         id="path18729-4"
         sodipodi:nodetypes="cc" />
    </g>
    <g
       aria-label="RMS"
       transform="matrix(0.93573804,0,0,0.93573804,-71.461954,-63.889159)"
       id="text7266"
       style="font-style:italic;font-size:17.7319px;font-family:'Times New Roman';-inkscape-font-specification:'Times New Roman,  Italic';white-space:pre;fill:#ffff00;stroke:#fffb00;stroke-width:1.06868;stroke-linecap:round"
       inkscape:transform-center-x="-17.363163"
       inkscape:transform-center-y="-0.040318024">
      <path
         d="m 88.562439,102.66346 q 1.212142,0 1.913452,-0.48486 0.709969,-0.48485 0.709969,-1.74894 0,-1.359333 -0.987029,-1.852848 -0.528148,-0.259745 -1.41128,-0.259745 h -4.207862 v 4.346393 z m -5.705723,-5.826937 h 5.887545 q 1.45457,0 2.398308,0.42425 1.792238,0.813866 1.792238,3.004377 0,1.14288 -0.476198,1.87016 -0.467541,0.72729 -1.31604,1.16885 0.744602,0.30304 1.116902,0.79655 0.380959,0.49352 0.42425,1.60176 l 0.06061,1.70566 q 0.02597,0.72728 0.121214,1.08227 0.155847,0.60607 0.554122,0.77923 v 0.28572 h -2.11259 q -0.08658,-0.1645 -0.13853,-0.42425 -0.05195,-0.25974 -0.08658,-1.00434 l -0.103898,-2.12125 q -0.06061,-1.24678 -0.926422,-1.67103 -0.493515,-0.23377 -1.54981,-0.23377 h -3.922143 v 5.45464 h -1.722973 z"
         style="font-style:normal;font-family:Helvetica;-inkscape-font-specification:'Helvetica, Normal'"
         id="path1725" />
      <path
         d="m 95.411039,96.836523 h 2.467574 l 3.653737,10.753427 3.62777,-10.753427 h 2.4416 v 12.718827 h -1.63639 v -7.50662 q 0,-0.38962 0.0173,-1.29006 0.0173,-0.900451 0.0173,-1.930771 l -3.62777,10.727451 h -1.70565 L 97.012797,98.827899 v 0.389616 q 0,0.467541 0.01732,1.428595 0.02597,0.9524 0.02597,1.40262 v 7.50662 h -1.645049 z"
         style="font-style:normal;font-family:Helvetica;-inkscape-font-specification:'Helvetica, Normal'"
         id="path1727" />
      <path
         d="m 111.3507,105.45139 q 0.0606,1.08227 0.51083,1.7576 0.85716,1.26409 3.0217,1.26409 0.96971,0 1.76626,-0.27706 1.54115,-0.5368 1.54115,-1.92211 0,-1.03898 -0.64936,-1.48054 -0.65802,-0.43291 -2.06064,-0.75326 l -1.72297,-0.38962 q -1.68834,-0.38096 -2.38965,-0.83984 -1.21214,-0.79655 -1.21214,-2.38099 0,-1.714317 1.18616,-2.813903 1.18617,-1.099586 3.35937,-1.099586 2.00003,0 3.39399,0.969714 1.40262,0.961055 1.40262,3.082305 h -1.61907 q -0.12987,-1.021665 -0.55412,-1.567128 -0.78789,-0.995688 -2.67537,-0.995688 -1.52384,0 -2.19051,0.640703 -0.66668,0.640704 -0.66668,1.489203 0,0.93508 0.77923,1.36799 0.51083,0.27706 2.31173,0.69265 l 1.78358,0.40693 q 1.29006,0.29438 1.99137,0.80521 1.21215,0.89179 1.21215,2.58879 0,2.11259 -1.54116,3.0217 -1.53249,0.9091 -3.56716,0.9091 -2.37233,0 -3.71434,-1.21214 -1.34202,-1.20348 -1.31604,-3.26412 z m 3.48058,-8.961193 z"
         style="font-style:normal;font-family:Helvetica;-inkscape-font-specification:'Helvetica, Normal'"
         id="path1729" />
    </g>
  </g>
</svg>
